<?xml version="1.0" encoding="UTF-8" standalone="no"?>
<!-- Generator: Adobe Illustrator 15.0.2, SVG Export Plug-In . SVG Version: 6.00 Build 0)  -->

<svg
   xmlns:osb="http://www.openswatchbook.org/uri/2009/osb"
   xmlns:dc="http://purl.org/dc/elements/1.1/"
   xmlns:cc="http://creativecommons.org/ns#"
   xmlns:rdf="http://www.w3.org/1999/02/22-rdf-syntax-ns#"
   xmlns:svg="http://www.w3.org/2000/svg"
   xmlns="http://www.w3.org/2000/svg"
   xmlns:xlink="http://www.w3.org/1999/xlink"
   xmlns:sodipodi="http://sodipodi.sourceforge.net/DTD/sodipodi-0.dtd"
   xmlns:inkscape="http://www.inkscape.org/namespaces/inkscape"
   version="1.1"
   id="ORANGE_BACKGROUNDS"
   x="0px"
   y="0px"
   width="80"
   height="80"
   viewBox="0 0 80 80"
   enable-background="new 0 0 96 96"
   xml:space="preserve"
   inkscape:version="0.48.3.1 r9886"
   sodipodi:docname="EverN9.svg"
   style="display:inline"
   inkscape:export-filename="/home/jpnurmi/Projects/EverN9/src/EverN9/EverN964.png"
   inkscape:export-xdpi="73.846153"
   inkscape:export-ydpi="73.846153"><metadata
   id="metadata3069"><rdf:RDF><cc:Work
       rdf:about=""><dc:format>image/svg+xml</dc:format><dc:type
         rdf:resource="http://purl.org/dc/dcmitype/StillImage" /><dc:title></dc:title></cc:Work></rdf:RDF></metadata><defs
   id="defs3067"><linearGradient
   id="linearGradient5113"><stop
     style="stop-color:#64af2d;stop-opacity:1;"
     offset="0"
     id="stop5115" /></linearGradient><linearGradient
   id="linearGradient5332"><stop
     style="stop-color:#78c56d;stop-opacity:1;"
     offset="0"
     id="stop5334" /></linearGradient><linearGradient
   id="linearGradient3799"><stop
     style="stop-color:#7886e4;stop-opacity:1;"
     offset="0"
     id="stop3801" /></linearGradient><linearGradient
   id="RED_x2F_ORANGE_5_2_-1"
   gradientUnits="userSpaceOnUse"
   x1="47.9995"
   y1="8.0107002"
   x2="47.9995"
   y2="87.9897"><stop
     offset="0"
     style="stop-color:#FFDB62"
     id="stop3054-7" /><stop
     offset="0.1393"
     style="stop-color:#FAD15C"
     id="stop3056-4" /><stop
     offset="0.3741"
     style="stop-color:#EDB74D"
     id="stop3058-0" /><stop
     offset="0.4848"
     style="stop-color:#E6A844"
     id="stop3060-9" /><stop
     offset="1"
     style="stop-color:#C96B25"
     id="stop3062-4" /></linearGradient><linearGradient
   gradientTransform="translate(2.000003,-1.988)"
   y2="87.9897"
   x2="47.9995"
   y1="8.0107002"
   x1="47.9995"
   gradientUnits="userSpaceOnUse"
   id="linearGradient3091"
   xlink:href="#RED_x2F_ORANGE_5_2_-1"
   inkscape:collect="always" /><linearGradient
   inkscape:collect="always"
   xlink:href="#RED_x2F_ORANGE_5_2_-1"
   id="linearGradient3124"
   gradientUnits="userSpaceOnUse"
   gradientTransform="translate(1.5e-6,5e-4)"
   x1="47.9995"
   y1="8.0107002"
   x2="47.9995"
   y2="87.9897" /><linearGradient
   inkscape:collect="always"
   xlink:href="#RED_x2F_ORANGE_5_2_-1-7"
   id="linearGradient3124-1"
   gradientUnits="userSpaceOnUse"
   gradientTransform="translate(1.5e-6,5e-4)"
   x1="47.9995"
   y1="8.0107002"
   x2="47.9995"
   y2="87.9897" /><linearGradient
   id="RED_x2F_ORANGE_5_2_-1-7"
   gradientUnits="userSpaceOnUse"
   x1="47.9995"
   y1="8.0107002"
   x2="47.9995"
   y2="87.9897"><stop
     offset="0"
     style="stop-color:#FFDB62"
     id="stop3054-7-4" /><stop
     offset="0.1393"
     style="stop-color:#FAD15C"
     id="stop3056-4-0" /><stop
     offset="0.3741"
     style="stop-color:#EDB74D"
     id="stop3058-0-9" /><stop
     offset="0.4848"
     style="stop-color:#E6A844"
     id="stop3060-9-4" /><stop
     offset="1"
     style="stop-color:#C96B25"
     id="stop3062-4-8" /></linearGradient><linearGradient
   y2="87.9897"
   x2="47.9995"
   y1="8.0107002"
   x1="47.9995"
   gradientTransform="translate(1.5e-6,5e-4)"
   gradientUnits="userSpaceOnUse"
   id="linearGradient3234"
   xlink:href="#RED_x2F_ORANGE_5_2_-1-7"
   inkscape:collect="always" /><linearGradient
   y2="87.9897"
   x2="47.9995"
   y1="8.0107002"
   x1="47.9995"
   gradientTransform="translate(1.5e-6,5e-4)"
   gradientUnits="userSpaceOnUse"
   id="linearGradient3234-8"
   xlink:href="#RED_x2F_ORANGE_5_2_-1-7-2"
   inkscape:collect="always" /><linearGradient
   id="RED_x2F_ORANGE_5_2_-1-7-2"
   gradientUnits="userSpaceOnUse"
   x1="47.9995"
   y1="8.0107002"
   x2="47.9995"
   y2="87.9897"><stop
     offset="0"
     style="stop-color:#FFDB62"
     id="stop3054-7-4-4" /><stop
     offset="0.1393"
     style="stop-color:#FAD15C"
     id="stop3056-4-0-5" /><stop
     offset="0.3741"
     style="stop-color:#EDB74D"
     id="stop3058-0-9-5" /><stop
     offset="0.4848"
     style="stop-color:#E6A844"
     id="stop3060-9-4-1" /><stop
     offset="1"
     style="stop-color:#C96B25"
     id="stop3062-4-8-7" /></linearGradient><linearGradient
   y2="87.9897"
   x2="47.9995"
   y1="8.0107002"
   x1="47.9995"
   gradientTransform="translate(1.5e-6,5e-4)"
   gradientUnits="userSpaceOnUse"
   id="linearGradient3277"
   xlink:href="#RED_x2F_ORANGE_5_2_-1-7-2"
   inkscape:collect="always" /><linearGradient
   inkscape:collect="always"
   xlink:href="#linearGradient3799-7"
   id="linearGradient3803-1"
   x1="-77.5"
   y1="31.75"
   x2="-15"
   y2="31.75"
   gradientUnits="userSpaceOnUse" /><linearGradient
   id="linearGradient3799-7"><stop
     style="stop-color:#78d9e4;stop-opacity:1;"
     offset="0"
     id="stop3801-4" /></linearGradient><linearGradient
   y2="31.75"
   x2="-15"
   y1="31.75"
   x1="-77.5"
   gradientUnits="userSpaceOnUse"
   id="linearGradient3819-9"
   xlink:href="#linearGradient3799-7-4"
   inkscape:collect="always" /><linearGradient
   id="linearGradient3799-7-4"><stop
     style="stop-color:#782ee4;stop-opacity:1;"
     offset="0"
     id="stop3801-4-8" /></linearGradient><linearGradient
   y2="31.75"
   x2="-15"
   y1="31.75"
   x1="-77.5"
   gradientUnits="userSpaceOnUse"
   id="linearGradient3850-2"
   xlink:href="#linearGradient3799-7-4-4"
   inkscape:collect="always" /><linearGradient
   id="linearGradient3799-7-4-4"><stop
     style="stop-color:#782e38;stop-opacity:1;"
     offset="0"
     id="stop3801-4-8-5" /></linearGradient><linearGradient
   y2="87.9897"
   x2="47.9995"
   y1="8.0107002"
   x1="47.9995"
   gradientTransform="translate(1.5e-6,5e-4)"
   gradientUnits="userSpaceOnUse"
   id="linearGradient3277-1"
   xlink:href="#RED_x2F_ORANGE_5_2_-1-7-2-7"
   inkscape:collect="always" /><linearGradient
   id="RED_x2F_ORANGE_5_2_-1-7-2-7"
   gradientUnits="userSpaceOnUse"
   x1="47.9995"
   y1="8.0107002"
   x2="47.9995"
   y2="87.9897"><stop
     offset="0"
     style="stop-color:#FFDB62"
     id="stop3054-7-4-4-4" /><stop
     offset="0.1393"
     style="stop-color:#FAD15C"
     id="stop3056-4-0-5-0" /><stop
     offset="0.3741"
     style="stop-color:#EDB74D"
     id="stop3058-0-9-5-9" /><stop
     offset="0.4848"
     style="stop-color:#E6A844"
     id="stop3060-9-4-1-4" /><stop
     offset="1"
     style="stop-color:#C96B25"
     id="stop3062-4-8-7-8" /></linearGradient><linearGradient
   y2="87.9897"
   x2="47.9995"
   y1="8.0107002"
   x1="47.9995"
   gradientTransform="translate(1.5e-6,5e-4)"
   gradientUnits="userSpaceOnUse"
   id="linearGradient4552"
   xlink:href="#RED_x2F_ORANGE_5_2_-1-7-2-7"
   inkscape:collect="always" /><linearGradient
   y2="87.9897"
   x2="47.9995"
   y1="8.0107002"
   x1="47.9995"
   gradientTransform="translate(1.5e-6,5e-4)"
   gradientUnits="userSpaceOnUse"
   id="linearGradient4552-2"
   xlink:href="#RED_x2F_ORANGE_5_2_-1-7-2-7-4"
   inkscape:collect="always" /><linearGradient
   id="RED_x2F_ORANGE_5_2_-1-7-2-7-4"
   gradientUnits="userSpaceOnUse"
   x1="47.9995"
   y1="8.0107002"
   x2="47.9995"
   y2="87.9897"><stop
     offset="0"
     style="stop-color:#FFDB62"
     id="stop3054-7-4-4-4-5" /><stop
     offset="0.1393"
     style="stop-color:#FAD15C"
     id="stop3056-4-0-5-0-5" /><stop
     offset="0.3741"
     style="stop-color:#EDB74D"
     id="stop3058-0-9-5-9-1" /><stop
     offset="0.4848"
     style="stop-color:#E6A844"
     id="stop3060-9-4-1-4-7" /><stop
     offset="1"
     style="stop-color:#C96B25"
     id="stop3062-4-8-7-8-1" /></linearGradient>
	

		<linearGradient
   id="RED_x2F_ORANGE_5_2_-8"
   gradientUnits="userSpaceOnUse"
   x1="47.9995"
   y1="8.0107002"
   x2="47.9995"
   y2="87.9897">
			<stop
   offset="0"
   style="stop-color:#FFDB62"
   id="stop6363" />
			<stop
   offset="0.1393"
   style="stop-color:#FAD15C"
   id="stop6365" />
			<stop
   offset="0.3741"
   style="stop-color:#EDB74D"
   id="stop6367" />
			<stop
   offset="0.4848"
   style="stop-color:#E6A844"
   id="stop6369" />
			<stop
   offset="1"
   style="stop-color:#C96B25"
   id="stop6371" />
		</linearGradient>
		
		<linearGradient
   id="HIGHLIGHTS_RO5_1_"
   gradientUnits="userSpaceOnUse"
   x1="47.9995"
   y1="8.2559004"
   x2="47.9995"
   y2="87.504303">
			<stop
   offset="0"
   style="stop-color:#FFFFFF"
   id="stop6375" />
			<stop
   offset="0.0958"
   style="stop-color:#FDF8F5"
   id="stop6377" />
			<stop
   offset="0.2579"
   style="stop-color:#F6E6DB"
   id="stop6379" />
			<stop
   offset="0.4666"
   style="stop-color:#EBC9AF"
   id="stop6381" />
			<stop
   offset="0.7136"
   style="stop-color:#DCA073"
   id="stop6383" />
			<stop
   offset="0.9904"
   style="stop-color:#CA6D28"
   id="stop6385" />
			<stop
   offset="1"
   style="stop-color:#C96B25"
   id="stop6387" />
		</linearGradient>
		
	
	
<linearGradient
   inkscape:collect="always"
   xlink:href="#linearGradient5113-1"
   id="linearGradient5117-3"
   x1="-54.5"
   y1="-35.875"
   x2="-19.75"
   y2="-35.875"
   gradientUnits="userSpaceOnUse"
   gradientTransform="matrix(0.14388489,0,0,0.14184397,-12.158274,-16.411348)" /><linearGradient
   id="linearGradient5113-1"><stop
     style="stop-color:#449311;stop-opacity:1;"
     offset="0"
     id="stop5115-9" /></linearGradient><linearGradient
   y2="-35.875"
   x2="-19.75"
   y1="-35.875"
   x1="-54.5"
   gradientTransform="matrix(0.14388489,0,0,0.14184397,-7.158274,-16.411348)"
   gradientUnits="userSpaceOnUse"
   id="linearGradient5133-6"
   xlink:href="#linearGradient5113-1-5"
   inkscape:collect="always" /><linearGradient
   id="linearGradient5113-1-5"><stop
     style="stop-color:#128406;stop-opacity:1;"
     offset="0"
     id="stop5115-9-0" /></linearGradient><linearGradient
   y2="-35.875"
   x2="-19.75"
   y1="-35.875"
   x1="-54.5"
   gradientTransform="matrix(0.14388489,0,0,0.14184397,-2.158274,-16.411348)"
   gradientUnits="userSpaceOnUse"
   id="linearGradient5164-8"
   xlink:href="#linearGradient5113-1-5-6"
   inkscape:collect="always" /><linearGradient
   id="linearGradient5113-1-5-6"><stop
     style="stop-color:#009351;stop-opacity:1;"
     offset="0"
     id="stop5115-9-0-0" /></linearGradient><linearGradient
   y2="-35.875"
   x2="-19.75"
   y1="-35.875"
   x1="-54.5"
   gradientTransform="matrix(0.14388489,0,0,0.14184397,113.31386,17.588652)"
   gradientUnits="userSpaceOnUse"
   id="linearGradient5195"
   xlink:href="#linearGradient5113-1-5-6"
   inkscape:collect="always" /><linearGradient
   id="linearGradient5113-1-5-6-8"><stop
     style="stop-color:#1b34b2;stop-opacity:1;"
     offset="0"
     id="stop5115-9-0-0-6" /></linearGradient><linearGradient
   id="linearGradient5113-1-5-0"><stop
     style="stop-color:#0066a8;stop-opacity:1;"
     offset="0"
     id="stop5115-9-0-9" /></linearGradient><linearGradient
   y2="-35.875"
   x2="-19.75"
   y1="-35.875"
   x1="-54.5"
   gradientTransform="matrix(0.14388489,0,0,0.14184397,113.31386,27.588652)"
   gradientUnits="userSpaceOnUse"
   id="linearGradient5133-0"
   xlink:href="#linearGradient5113-1-0"
   inkscape:collect="always" /><linearGradient
   id="linearGradient5113-1-0"><stop
     style="stop-color:#0082b6;stop-opacity:1;"
     offset="0"
     id="stop5115-9-6" /></linearGradient><linearGradient
   inkscape:collect="always"
   xlink:href="#linearGradient5113-3"
   id="linearGradient5117-1"
   x1="-54.5"
   y1="-35.875"
   x2="-19.75"
   y2="-35.875"
   gradientUnits="userSpaceOnUse"
   gradientTransform="matrix(0.14388489,0,0,0.14184397,-12.158274,-16.411348)" /><linearGradient
   id="linearGradient5113-3"><stop
     style="stop-color:#0d9758;stop-opacity:1;"
     offset="0"
     id="stop5115-8" /></linearGradient><linearGradient
   y2="-35.875"
   x2="-19.75"
   y1="-35.875"
   x1="-54.5"
   gradientTransform="matrix(0.14388489,0,0,0.14184397,113.31386,22.588652)"
   gradientUnits="userSpaceOnUse"
   id="linearGradient5238"
   xlink:href="#linearGradient5113-3"
   inkscape:collect="always" /><linearGradient
   y2="-35.875"
   x2="-19.75"
   y1="-35.875"
   x1="-54.5"
   gradientTransform="matrix(0.14388489,0,0,0.14184397,-12.158274,-11.411348)"
   gradientUnits="userSpaceOnUse"
   id="linearGradient5238-6"
   xlink:href="#linearGradient5113-3-0"
   inkscape:collect="always" /><linearGradient
   id="linearGradient5113-3-0"><stop
     style="stop-color:#2c00a5;stop-opacity:1;"
     offset="0"
     id="stop5115-8-6" /></linearGradient><linearGradient
   id="linearGradient5113-1-0-1"><stop
     style="stop-color:#62226a;stop-opacity:1;"
     offset="0"
     id="stop5115-9-6-8" /></linearGradient><linearGradient
   id="linearGradient5113-1-5-0-9"><stop
     style="stop-color:#e50c98;stop-opacity:1;"
     offset="0"
     id="stop5115-9-0-9-6" /></linearGradient><linearGradient
   id="linearGradient5113-1-5-6-8-7"><stop
     style="stop-color:#ec297b;stop-opacity:1;"
     offset="0"
     id="stop5115-9-0-0-6-8" /></linearGradient><linearGradient
   id="linearGradient5113-1-5-6-8-7-5"><stop
     style="stop-color:#ff7a0d;stop-opacity:1;"
     offset="0"
     id="stop5115-9-0-0-6-8-9" /></linearGradient><linearGradient
   id="linearGradient5113-1-5-0-9-4"><stop
     style="stop-color:#ff5b00;stop-opacity:1;"
     offset="0"
     id="stop5115-9-0-9-6-0" /></linearGradient><linearGradient
   id="linearGradient5113-1-0-1-6"><stop
     style="stop-color:#f74000;stop-opacity:1;"
     offset="0"
     id="stop5115-9-6-8-3" /></linearGradient><linearGradient
   y2="-35.875"
   x2="-19.75"
   y1="-35.875"
   x1="-54.5"
   gradientTransform="matrix(0.14388489,0,0,0.14184397,-12.158274,-6.411348)"
   gradientUnits="userSpaceOnUse"
   id="linearGradient5305-6"
   xlink:href="#linearGradient5113-3-0-1"
   inkscape:collect="always" /><linearGradient
   id="linearGradient5113-3-0-1"><stop
     style="stop-color:#e21429;stop-opacity:1;"
     offset="0"
     id="stop5115-8-6-5" /></linearGradient><linearGradient
   id="linearGradient5113-1-5-6-8-7-5-3"><stop
     style="stop-color:#e0e0e0;stop-opacity:1;"
     offset="0"
     id="stop5115-9-0-0-6-8-9-7" /></linearGradient><linearGradient
   id="linearGradient5113-1-5-0-9-4-6"><stop
     style="stop-color:#e8e8e8;stop-opacity:1;"
     offset="0"
     id="stop5115-9-0-9-6-0-0" /></linearGradient><linearGradient
   id="linearGradient5113-1-0-1-6-6"><stop
     style="stop-color:#f7d303;stop-opacity:1;"
     offset="0"
     id="stop5115-9-6-8-3-5" /></linearGradient><linearGradient
   y2="-35.875"
   x2="-19.75"
   y1="-35.875"
   x1="-54.5"
   gradientTransform="matrix(0.14388489,0,0,0.14184397,-12.158274,-1.411348)"
   gradientUnits="userSpaceOnUse"
   id="linearGradient5372-7"
   xlink:href="#linearGradient5113-3-0-1-5"
   inkscape:collect="always" /><linearGradient
   id="linearGradient5113-3-0-1-5"><stop
     style="stop-color:#ffa300;stop-opacity:1;"
     offset="0"
     id="stop5115-8-6-5-4" /></linearGradient><linearGradient
   y2="-35.875"
   x2="-19.75"
   y1="-35.875"
   x1="-54.5"
   gradientTransform="matrix(0.14388489,0,0,0.14184397,-12.158274,8.588652)"
   gradientUnits="userSpaceOnUse"
   id="linearGradient5164-5-4-8-2-1"
   xlink:href="#linearGradient5113-1-5-0-9-4-6-4"
   inkscape:collect="always" /><linearGradient
   id="linearGradient5113-1-5-0-9-4-6-4"><stop
     style="stop-color:#d3d3d3;stop-opacity:1;"
     offset="0"
     id="stop5115-9-0-9-6-0-0-6" /></linearGradient><linearGradient
   id="linearGradient5113-1-5-6-8-7-5-3-7"><stop
     style="stop-color:#cecece;stop-opacity:1;"
     offset="0"
     id="stop5115-9-0-0-6-8-9-7-1" /></linearGradient><linearGradient
   id="SVGID_1_"
   gradientUnits="userSpaceOnUse"
   x1="48.452099"
   y1="39.117199"
   x2="48.452099"
   y2="70.455498"><stop
     offset="0.3232"
     style="stop-color:#FAFCEF"
     id="stop4392-1" /><stop
     offset="1"
     style="stop-color:#D0CBC5"
     id="stop4394-7" /></linearGradient><linearGradient
   gradientTransform="translate(68.546831,-90.188689)"
   y2="70.455498"
   x2="48.452099"
   y1="39.117199"
   x1="48.452099"
   gradientUnits="userSpaceOnUse"
   id="linearGradient4418"
   xlink:href="#SVGID_1_"
   inkscape:collect="always" /><linearGradient
   id="HIGHLIGHT_6_"
   gradientUnits="userSpaceOnUse"
   x1="39.9995"
   y1="1.2471"
   x2="39.9995"
   y2="78.511101"
   gradientTransform="translate(0,16)"><stop
     offset="0"
     style="stop-color:#FFFFFF"
     id="stop69" /><stop
     offset="1"
     style="stop-color:#FFFFFF"
     id="stop71" /></linearGradient><linearGradient
   id="OVERLAY_6_"
   gradientUnits="userSpaceOnUse"
   x1="39.9995"
   y1="5.1816001"
   x2="39.9995"
   y2="58.801899"
   gradientTransform="translate(0,16)"><stop
     offset="0"
     style="stop-color:#FFFFFF"
     id="stop36" /><stop
     offset="1"
     style="stop-color:#000000"
     id="stop38" /></linearGradient><linearGradient
   id="OVERLAY_6_-1"
   gradientUnits="userSpaceOnUse"
   x1="38.9995"
   y1="4.1816001"
   x2="38.9995"
   y2="57.801899"
   gradientTransform="translate(1,17)"><stop
     offset="0"
     style="stop-color:#FFFFFF"
     id="stop3340" /><stop
     offset="1"
     style="stop-color:#000000"
     id="stop3342" /></linearGradient><linearGradient
   id="HIGHLIGHT_6_-7"
   gradientUnits="userSpaceOnUse"
   x1="38.9995"
   y1="0.2471"
   x2="38.9995"
   y2="77.511101"
   gradientTransform="translate(1,17)"><stop
     offset="0"
     style="stop-color:#FFFFFF"
     id="stop3373" /><stop
     offset="1"
     style="stop-color:#FFFFFF"
     id="stop3375" /></linearGradient><linearGradient
   y2="-35.875"
   x2="-19.75"
   y1="-35.875"
   x1="-54.5"
   gradientTransform="matrix(0.14388489,0,0,0.14184397,113.31386,27.193487)"
   gradientUnits="userSpaceOnUse"
   id="linearGradient5305-4"
   xlink:href="#linearGradient5113-3-0-0"
   inkscape:collect="always" /><linearGradient
   id="linearGradient5113-3-0-0"><stop
     style="stop-color:#2c00a5;stop-opacity:1;"
     offset="0"
     id="stop5115-8-6-9" /></linearGradient><linearGradient
   y2="-35.875"
   x2="-19.75"
   y1="-35.875"
   x1="-54.5"
   gradientTransform="matrix(0.14388489,0,0,0.14184397,113.25136,92.162235)"
   gradientUnits="userSpaceOnUse"
   id="linearGradient5195-4-3-3-7-0-8"
   xlink:href="#linearGradient5113-1-5-6-8-7-5-3-7-2"
   inkscape:collect="always" /><linearGradient
   id="linearGradient5113-1-5-6-8-7-5-3-7-2"><stop
     style="stop-color:#cecece;stop-opacity:1;"
     offset="0"
     id="stop5115-9-0-0-6-8-9-7-1-4" /></linearGradient><linearGradient
   id="BLUE1_3_"
   gradientUnits="userSpaceOnUse"
   x1="38.9995"
   y1="0"
   x2="38.9995"
   y2="78.000504"><stop
     offset="0"
     style="stop-color:#06BCE4"
     id="stop7" /><stop
     offset="0.1812"
     style="stop-color:#05A3DA"
     id="stop9" /><stop
     offset="0.5632"
     style="stop-color:#0365BF"
     id="stop11" /><stop
     offset="0.7212"
     style="stop-color:#0249B3"
     id="stop13" /></linearGradient><linearGradient
   id="HIGHLIGHT_RIM_3_"
   gradientUnits="userSpaceOnUse"
   x1="38.9995"
   y1="-7.7793002"
   x2="38.9995"
   y2="133.2713"
   gradientTransform="translate(1,17)"><stop
     offset="0"
     style="stop-color:#FFFFFF"
     id="stop17" /><stop
     offset="1"
     style="stop-color:#000000"
     id="stop19" /></linearGradient><linearGradient
   id="BLUE1_3_-1"
   gradientUnits="userSpaceOnUse"
   x1="38.9995"
   y1="0"
   x2="38.9995"
   y2="78.000504"><stop
     offset="0"
     style="stop-color:#06BCE4"
     id="stop7-4" /><stop
     offset="0.1812"
     style="stop-color:#05A3DA"
     id="stop9-2" /><stop
     offset="0.5632"
     style="stop-color:#0365BF"
     id="stop11-3" /><stop
     offset="0.7212"
     style="stop-color:#0249B3"
     id="stop13-2" /></linearGradient><linearGradient
   id="HIGHLIGHT_RIM_3_-2"
   gradientUnits="userSpaceOnUse"
   x1="38.9995"
   y1="-7.7793002"
   x2="38.9995"
   y2="133.2713"
   gradientTransform="translate(1,17)"><stop
     offset="0"
     style="stop-color:#FFFFFF"
     id="stop17-1" /><stop
     offset="1"
     style="stop-color:#000000"
     id="stop19-6" /></linearGradient><linearGradient
   y2="78.000504"
   x2="38.9995"
   y1="0"
   x1="38.9995"
   gradientUnits="userSpaceOnUse"
   id="linearGradient3021-8"
   xlink:href="#BLUE1_3_-1"
   inkscape:collect="always"
   gradientTransform="translate(1,17)" /><linearGradient
   id="BLUE2_3_"
   gradientUnits="userSpaceOnUse"
   x1="38.9995"
   y1="0"
   x2="38.9995"
   y2="78.000504"><stop
     offset="0"
     style="stop-color:#00C4D7"
     id="stop7-5" /><stop
     offset="0.1885"
     style="stop-color:#00ABC7"
     id="stop9-7" /><stop
     offset="0.586"
     style="stop-color:#006D9D"
     id="stop11-6" /><stop
     offset="0.7212"
     style="stop-color:#00568E"
     id="stop13-1" /></linearGradient><linearGradient
   id="HIGHLIGHT_RIM_3_-8"
   gradientUnits="userSpaceOnUse"
   x1="38.9995"
   y1="-7.7793002"
   x2="38.9995"
   y2="133.2713"
   gradientTransform="translate(1,17)"><stop
     offset="0"
     style="stop-color:#FFFFFF"
     id="stop17-9" /><stop
     offset="1"
     style="stop-color:#000000"
     id="stop19-2" /></linearGradient><linearGradient
   y2="78.000504"
   x2="38.9995"
   y1="0"
   x1="38.9995"
   gradientUnits="userSpaceOnUse"
   id="linearGradient3021-7"
   xlink:href="#BLUE2_3_"
   inkscape:collect="always"
   gradientTransform="translate(1,17)" /><linearGradient
   id="BLUE3_3_"
   gradientUnits="userSpaceOnUse"
   x1="38.9995"
   y1="0"
   x2="38.9995"
   y2="78.000504"><stop
     offset="0"
     style="stop-color:#4498E1"
     id="stop7-54" /><stop
     offset="0.219"
     style="stop-color:#397FD2"
     id="stop9-3" /><stop
     offset="0.6811"
     style="stop-color:#1D41AC"
     id="stop11-1" /><stop
     offset="0.7212"
     style="stop-color:#1A3BA9"
     id="stop13-23" /></linearGradient><linearGradient
   id="HIGHLIGHT_RIM_3_-3"
   gradientUnits="userSpaceOnUse"
   x1="38.9995"
   y1="-7.7793002"
   x2="38.9995"
   y2="133.2713"
   gradientTransform="translate(1,17)"><stop
     offset="0"
     style="stop-color:#FFFFFF"
     id="stop17-4" /><stop
     offset="1"
     style="stop-color:#000000"
     id="stop19-1" /></linearGradient><linearGradient
   y2="78.000504"
   x2="38.9995"
   y1="0"
   x1="38.9995"
   gradientUnits="userSpaceOnUse"
   id="linearGradient3021-1"
   xlink:href="#BLUE3_3_"
   inkscape:collect="always"
   gradientTransform="translate(1,17)" /><linearGradient
   id="BLUE4_3_"
   gradientUnits="userSpaceOnUse"
   x1="38.9995"
   y1="0"
   x2="38.9995"
   y2="78.000504"><stop
     offset="0"
     style="stop-color:#1B62C8"
     id="stop7-8" /><stop
     offset="0.2034"
     style="stop-color:#1753AF"
     id="stop9-74" /><stop
     offset="0.6326"
     style="stop-color:#0C2E71"
     id="stop11-2" /><stop
     offset="0.7212"
     style="stop-color:#0A2663"
     id="stop13-7" /></linearGradient><linearGradient
   id="HIGHLIGHT_RIM_3_-7"
   gradientUnits="userSpaceOnUse"
   x1="38.9995"
   y1="-7.7793002"
   x2="38.9995"
   y2="133.2713"
   gradientTransform="translate(1,17)"><stop
     offset="0"
     style="stop-color:#FFFFFF"
     id="stop17-93" /><stop
     offset="1"
     style="stop-color:#000000"
     id="stop19-19" /></linearGradient><linearGradient
   y2="78.000504"
   x2="38.9995"
   y1="0"
   x1="38.9995"
   gradientUnits="userSpaceOnUse"
   id="linearGradient3021-86"
   xlink:href="#BLUE4_3_"
   inkscape:collect="always"
   gradientTransform="translate(1,17)" /><linearGradient
   id="GREEN1_3_"
   gradientUnits="userSpaceOnUse"
   x1="38.9995"
   y1="0"
   x2="38.9995"
   y2="78.000504"><stop
     offset="0"
     style="stop-color:#A5DB00"
     id="stop7-0" /><stop
     offset="0.2034"
     style="stop-color:#8CCB00"
     id="stop9-28" /><stop
     offset="0.6326"
     style="stop-color:#4EA100"
     id="stop11-60" /><stop
     offset="0.7212"
     style="stop-color:#409800"
     id="stop13-24" /></linearGradient><linearGradient
   id="HIGHLIGHT_RIM_3_-86"
   gradientUnits="userSpaceOnUse"
   x1="38.9995"
   y1="-7.7793002"
   x2="38.9995"
   y2="133.2713"
   gradientTransform="translate(1,17)"><stop
     offset="0"
     style="stop-color:#FFFFFF"
     id="stop17-5" /><stop
     offset="1"
     style="stop-color:#000000"
     id="stop19-0" /></linearGradient><linearGradient
   y2="78.000504"
   x2="38.9995"
   y1="0"
   x1="38.9995"
   gradientUnits="userSpaceOnUse"
   id="linearGradient3021-9"
   xlink:href="#GREEN1_3_"
   inkscape:collect="always"
   gradientTransform="translate(1,17)" /><linearGradient
   id="GREEN2_3_"
   gradientUnits="userSpaceOnUse"
   x1="38.9995"
   y1="0"
   x2="38.9995"
   y2="78.000504"><stop
     offset="0"
     style="stop-color:#6EC400"
     id="stop7-06" /><stop
     offset="0.3237"
     style="stop-color:#529700"
     id="stop9-1" /><stop
     offset="0.7394"
     style="stop-color:#2B5700"
     id="stop11-38" /><stop
     offset="1"
     style="stop-color:#2A5600"
     id="stop13-9" /></linearGradient><linearGradient
   id="HIGHLIGHT_RIM_3_-34"
   gradientUnits="userSpaceOnUse"
   x1="38.9995"
   y1="-7.7793002"
   x2="38.9995"
   y2="133.2713"
   gradientTransform="translate(1,17)"><stop
     offset="0"
     style="stop-color:#FFFFFF"
     id="stop17-46" /><stop
     offset="1"
     style="stop-color:#000000"
     id="stop19-06" /></linearGradient><linearGradient
   inkscape:collect="always"
   xlink:href="#GREEN2_3_"
   id="linearGradient3760"
   gradientUnits="userSpaceOnUse"
   x1="38.9995"
   y1="0"
   x2="38.9995"
   y2="78.000504"
   gradientTransform="translate(1,17)" /><linearGradient
   id="GREEN3_3_"
   gradientUnits="userSpaceOnUse"
   x1="38.9995"
   y1="0"
   x2="38.9995"
   y2="78.000504"><stop
     offset="0"
     style="stop-color:#36C400"
     id="stop7-84" /><stop
     offset="0.0592"
     style="stop-color:#33B900"
     id="stop9-9" /><stop
     offset="0.5387"
     style="stop-color:#1E6700"
     id="stop11-63" /><stop
     offset="0.7576"
     style="stop-color:#154600"
     id="stop13-78" /></linearGradient><linearGradient
   id="HIGHLIGHT_RIM_3_-82"
   gradientUnits="userSpaceOnUse"
   x1="38.9995"
   y1="-7.7793002"
   x2="38.9995"
   y2="133.2713"
   gradientTransform="translate(1,17)"><stop
     offset="0"
     style="stop-color:#FFFFFF"
     id="stop17-91" /><stop
     offset="1"
     style="stop-color:#000000"
     id="stop19-3" /></linearGradient><linearGradient
   y2="78.000504"
   x2="38.9995"
   y1="0"
   x1="38.9995"
   gradientUnits="userSpaceOnUse"
   id="linearGradient3021-5"
   xlink:href="#GREEN3_3_"
   inkscape:collect="always"
   gradientTransform="translate(1,17)" /><linearGradient
   id="GREY1_3_"
   gradientUnits="userSpaceOnUse"
   x1="38.9995"
   y1="0"
   x2="38.9995"
   y2="78.000504"><stop
     offset="0"
     style="stop-color:#D1D4D5"
     id="stop7-40" /><stop
     offset="0.1427"
     style="stop-color:#C8CCCD"
     id="stop9-76" /><stop
     offset="0.3736"
     style="stop-color:#B0B5B7"
     id="stop11-36" /><stop
     offset="0.6626"
     style="stop-color:#899093"
     id="stop13-15" /><stop
     offset="0.7455"
     style="stop-color:#7D8488"
     id="stop15" /></linearGradient><linearGradient
   id="HIGHLIGHT_RIM_3_-4"
   gradientUnits="userSpaceOnUse"
   x1="38.9995"
   y1="-7.7793002"
   x2="38.9995"
   y2="133.2713"
   gradientTransform="translate(1,17)"><stop
     offset="0"
     style="stop-color:#FFFFFF"
     id="stop19-20" /><stop
     offset="1"
     style="stop-color:#000000"
     id="stop21" /></linearGradient><linearGradient
   y2="78.000504"
   x2="38.9995"
   y1="0"
   x1="38.9995"
   gradientUnits="userSpaceOnUse"
   id="linearGradient3024"
   xlink:href="#GREY1_3_"
   inkscape:collect="always"
   gradientTransform="translate(1,17)" /><linearGradient
   id="GREY2_3_"
   gradientUnits="userSpaceOnUse"
   x1="38.9995"
   y1="0"
   x2="38.9995"
   y2="78.000504"><stop
     offset="0"
     style="stop-color:#CFCFCF"
     id="stop7-3" /><stop
     offset="0.1368"
     style="stop-color:#C6C6C6"
     id="stop9-72" /><stop
     offset="0.3582"
     style="stop-color:#AEAEAE"
     id="stop11-601" /><stop
     offset="0.6351"
     style="stop-color:#878787"
     id="stop13-6" /><stop
     offset="0.7455"
     style="stop-color:#767676"
     id="stop15-5" /></linearGradient><linearGradient
   id="HIGHLIGHT_RIM_3_-75"
   gradientUnits="userSpaceOnUse"
   x1="38.9995"
   y1="-7.7793002"
   x2="38.9995"
   y2="133.2713"
   gradientTransform="translate(1,17)"><stop
     offset="0"
     style="stop-color:#FFFFFF"
     id="stop19-4" /><stop
     offset="1"
     style="stop-color:#000000"
     id="stop21-1" /></linearGradient><linearGradient
   y2="78.000504"
   x2="38.9995"
   y1="0"
   x1="38.9995"
   gradientUnits="userSpaceOnUse"
   id="linearGradient3024-2"
   xlink:href="#GREY2_3_"
   inkscape:collect="always"
   gradientTransform="translate(1,17)" /><linearGradient
   id="GREY3_3_"
   gradientUnits="userSpaceOnUse"
   x1="38.9995"
   y1="0"
   x2="38.9995"
   y2="78.000504"><stop
     offset="0"
     style="stop-color:#BABABA"
     id="stop7-1" /><stop
     offset="0.1141"
     style="stop-color:#B1B1B1"
     id="stop9-4" /><stop
     offset="0.2988"
     style="stop-color:#999999"
     id="stop11-607" /><stop
     offset="0.5297"
     style="stop-color:#727272"
     id="stop13-17" /><stop
     offset="0.7455"
     style="stop-color:#484848"
     id="stop15-7" /></linearGradient><linearGradient
   id="HIGHLIGHT_RIM_3_-77"
   gradientUnits="userSpaceOnUse"
   x1="38.9995"
   y1="-7.7793002"
   x2="38.9995"
   y2="133.2713"
   gradientTransform="translate(1,17)"><stop
     offset="0"
     style="stop-color:#FFFFFF"
     id="stop19-33" /><stop
     offset="1"
     style="stop-color:#000000"
     id="stop21-5" /></linearGradient><linearGradient
   y2="78.000504"
   x2="38.9995"
   y1="0"
   x1="38.9995"
   gradientUnits="userSpaceOnUse"
   id="linearGradient3024-9"
   xlink:href="#GREY3_3_"
   inkscape:collect="always"
   gradientTransform="translate(1,17)" /><linearGradient
   id="GREY4_3_"
   gradientUnits="userSpaceOnUse"
   x1="38.9995"
   y1="0"
   x2="38.9995"
   y2="78.000504"><stop
     offset="0"
     style="stop-color:#7A7A7A"
     id="stop7-82" /><stop
     offset="0.155"
     style="stop-color:#717171"
     id="stop9-6" /><stop
     offset="0.4059"
     style="stop-color:#595959"
     id="stop11-603" /><stop
     offset="0.72"
     style="stop-color:#323232"
     id="stop13-8" /><stop
     offset="0.7455"
     style="stop-color:#2F2F2F"
     id="stop15-0" /></linearGradient><linearGradient
   id="HIGHLIGHT_RIM_3_-1"
   gradientUnits="userSpaceOnUse"
   x1="38.9995"
   y1="-7.7793002"
   x2="38.9995"
   y2="133.2713"
   gradientTransform="translate(1,17)"><stop
     offset="0"
     style="stop-color:#FFFFFF"
     id="stop19-25" /><stop
     offset="1"
     style="stop-color:#000000"
     id="stop21-0" /></linearGradient><linearGradient
   y2="78.000504"
   x2="38.9995"
   y1="0"
   x1="38.9995"
   gradientUnits="userSpaceOnUse"
   id="linearGradient3024-94"
   xlink:href="#GREY4_3_"
   inkscape:collect="always"
   gradientTransform="translate(1,17)" /><linearGradient
   id="ORANGE1_3_"
   gradientUnits="userSpaceOnUse"
   x1="38.9995"
   y1="0"
   x2="38.9995"
   y2="78.000504"><stop
     offset="0"
     style="stop-color:#F3CB00"
     id="stop7-83" /><stop
     offset="0.2109"
     style="stop-color:#EDB200"
     id="stop9-5" /><stop
     offset="0.6559"
     style="stop-color:#DE7400"
     id="stop11-12" /><stop
     offset="0.7212"
     style="stop-color:#DC6A00"
     id="stop13-0" /></linearGradient><linearGradient
   id="HIGHLIGHT_RIM_3_-16"
   gradientUnits="userSpaceOnUse"
   x1="38.9995"
   y1="-7.7793002"
   x2="38.9995"
   y2="133.2713"
   gradientTransform="translate(1,17)"><stop
     offset="0"
     style="stop-color:#FFFFFF"
     id="stop17-40" /><stop
     offset="1"
     style="stop-color:#000000"
     id="stop19-61" /></linearGradient><linearGradient
   y2="78.000504"
   x2="38.9995"
   y1="0"
   x1="38.9995"
   gradientUnits="userSpaceOnUse"
   id="linearGradient3021-89"
   xlink:href="#ORANGE1_3_"
   inkscape:collect="always"
   gradientTransform="translate(1,17)" /><linearGradient
   id="ORANGE2_3_"
   gradientUnits="userSpaceOnUse"
   x1="38.9995"
   y1="0"
   x2="38.9995"
   y2="78.000504"><stop
     offset="0"
     style="stop-color:#FBC200"
     id="stop7-41" /><stop
     offset="0.1855"
     style="stop-color:#F9A900"
     id="stop9-43" /><stop
     offset="0.5767"
     style="stop-color:#F66B00"
     id="stop11-9" /><stop
     offset="0.7212"
     style="stop-color:#F45200"
     id="stop13-88" /></linearGradient><linearGradient
   id="HIGHLIGHT_RIM_3_-0"
   gradientUnits="userSpaceOnUse"
   x1="38.9995"
   y1="-7.7793002"
   x2="38.9995"
   y2="133.2713"
   gradientTransform="translate(1,17)"><stop
     offset="0"
     style="stop-color:#FFFFFF"
     id="stop17-8" /><stop
     offset="1"
     style="stop-color:#000000"
     id="stop19-7" /></linearGradient><linearGradient
   y2="78.000504"
   x2="38.9995"
   y1="0"
   x1="38.9995"
   gradientUnits="userSpaceOnUse"
   id="linearGradient3021-78"
   xlink:href="#ORANGE2_3_"
   inkscape:collect="always"
   gradientTransform="translate(1,17)" /><linearGradient
   id="ORANGE3_3_"
   gradientUnits="userSpaceOnUse"
   x1="38.9995"
   y1="0"
   x2="38.9995"
   y2="78.000504"><stop
     offset="0"
     style="stop-color:#F4952F"
     id="stop7-37" /><stop
     offset="0.2211"
     style="stop-color:#EE7C27"
     id="stop9-10" /><stop
     offset="0.6877"
     style="stop-color:#E03E13"
     id="stop11-7" /><stop
     offset="0.7212"
     style="stop-color:#DF3912"
     id="stop13-3" /></linearGradient><linearGradient
   id="HIGHLIGHT_RIM_3_-49"
   gradientUnits="userSpaceOnUse"
   x1="38.9995"
   y1="-7.7793002"
   x2="38.9995"
   y2="133.2713"
   gradientTransform="translate(1,17)"><stop
     offset="0"
     style="stop-color:#FFFFFF"
     id="stop17-6" /><stop
     offset="1"
     style="stop-color:#000000"
     id="stop19-5" /></linearGradient><linearGradient
   y2="78.000504"
   x2="38.9995"
   y1="0"
   x1="38.9995"
   gradientUnits="userSpaceOnUse"
   id="linearGradient3021-10"
   xlink:href="#ORANGE3_3_"
   inkscape:collect="always"
   gradientTransform="translate(1,17)" /><linearGradient
   id="PINK1_3_"
   gradientUnits="userSpaceOnUse"
   x1="38.9995"
   y1="0"
   x2="38.9995"
   y2="78.000504"><stop
     offset="0"
     style="stop-color:#E117E0"
     id="stop7-6" /><stop
     offset="0.339"
     style="stop-color:#C911C7"
     id="stop9-8" /><stop
     offset="0.7212"
     style="stop-color:#A909A7"
     id="stop11-34" /></linearGradient><linearGradient
   id="HIGHLIGHT_RIM_3_-84"
   gradientUnits="userSpaceOnUse"
   x1="38.9995"
   y1="-7.7793002"
   x2="38.9995"
   y2="133.2713"
   gradientTransform="translate(1,17)"><stop
     offset="0"
     style="stop-color:#FFFFFF"
     id="stop15-9" /><stop
     offset="1"
     style="stop-color:#000000"
     id="stop17-92" /></linearGradient><linearGradient
   y2="78.000504"
   x2="38.9995"
   y1="0"
   x1="38.9995"
   gradientUnits="userSpaceOnUse"
   id="linearGradient3018"
   xlink:href="#PINK1_3_"
   inkscape:collect="always"
   gradientTransform="translate(1,17)" /><linearGradient
   id="PINK2_3_"
   gradientUnits="userSpaceOnUse"
   x1="38.9995"
   y1="0"
   x2="38.9995"
   y2="78.000504"><stop
     offset="0"
     style="stop-color:#EF1AD3"
     id="stop7-33" /><stop
     offset="0.245"
     style="stop-color:#E615BA"
     id="stop9-37" /><stop
     offset="0.7212"
     style="stop-color:#D10A81"
     id="stop11-4" /></linearGradient><linearGradient
   id="HIGHLIGHT_RIM_3_-38"
   gradientUnits="userSpaceOnUse"
   x1="38.9995"
   y1="-7.7793002"
   x2="38.9995"
   y2="133.2713"
   gradientTransform="translate(1,17)"><stop
     offset="0"
     style="stop-color:#FFFFFF"
     id="stop15-08" /><stop
     offset="1"
     style="stop-color:#000000"
     id="stop17-80" /></linearGradient><linearGradient
   y2="78.000504"
   x2="38.9995"
   y1="0"
   x1="38.9995"
   gradientUnits="userSpaceOnUse"
   id="linearGradient3018-6"
   xlink:href="#PINK2_3_"
   inkscape:collect="always"
   gradientTransform="translate(1,17)" /><linearGradient
   id="VIOLET1_3_"
   gradientUnits="userSpaceOnUse"
   x1="38.9995"
   y1="0"
   x2="38.9995"
   y2="78.000504"><stop
     offset="0"
     style="stop-color:#9602DD"
     id="stop7-9" /><stop
     offset="0.2211"
     style="stop-color:#7D02CC"
     id="stop9-89" /><stop
     offset="0.6877"
     style="stop-color:#3F01A0"
     id="stop11-72" /><stop
     offset="0.7212"
     style="stop-color:#3A019D"
     id="stop13-28" /></linearGradient><linearGradient
   id="HIGHLIGHT_RIM_3_-28"
   gradientUnits="userSpaceOnUse"
   x1="38.9995"
   y1="-7.7793002"
   x2="38.9995"
   y2="133.2713"
   gradientTransform="translate(1,17)"><stop
     offset="0"
     style="stop-color:#FFFFFF"
     id="stop17-90" /><stop
     offset="1"
     style="stop-color:#000000"
     id="stop19-78" /></linearGradient><linearGradient
   y2="78.000504"
   x2="38.9995"
   y1="0"
   x1="38.9995"
   gradientUnits="userSpaceOnUse"
   id="linearGradient3021-15"
   xlink:href="#VIOLET1_3_"
   inkscape:collect="always"
   gradientTransform="translate(1,17)" /><linearGradient
   id="VIOLET2_3_"
   gradientUnits="userSpaceOnUse"
   x1="38.9995"
   y1="0"
   x2="38.9995"
   y2="78.000504"><stop
     offset="0"
     style="stop-color:#CA02E2"
     id="stop7-12" /><stop
     offset="0.2109"
     style="stop-color:#B102D5"
     id="stop9-42" /><stop
     offset="0.6559"
     style="stop-color:#7301B2"
     id="stop11-5" /><stop
     offset="0.7212"
     style="stop-color:#6901AD"
     id="stop13-86" /></linearGradient><linearGradient
   id="HIGHLIGHT_RIM_3_-26"
   gradientUnits="userSpaceOnUse"
   x1="38.9995"
   y1="-7.7793002"
   x2="38.9995"
   y2="133.2713"
   gradientTransform="translate(1,17)"><stop
     offset="0"
     style="stop-color:#FFFFFF"
     id="stop17-53" /><stop
     offset="1"
     style="stop-color:#000000"
     id="stop19-9" /></linearGradient><linearGradient
   y2="78.000504"
   x2="38.9995"
   y1="0"
   x1="38.9995"
   gradientUnits="userSpaceOnUse"
   id="linearGradient3021-2"
   xlink:href="#VIOLET2_3_"
   inkscape:collect="always"
   gradientTransform="translate(1,17)" /><linearGradient
   id="WHITE_3_"
   gradientUnits="userSpaceOnUse"
   x1="38.9995"
   y1="-6.0801001"
   x2="38.9995"
   y2="74.070099"><stop
     offset="0"
     style="stop-color:#FFFFFF"
     id="stop7-61" /><stop
     offset="0.238"
     style="stop-color:#FBFBFB"
     id="stop9-82" /><stop
     offset="0.4717"
     style="stop-color:#EFF0F0"
     id="stop11-11" /><stop
     offset="0.7037"
     style="stop-color:#DCDDDE"
     id="stop13-97" /><stop
     offset="0.9334"
     style="stop-color:#C0C3C5"
     id="stop15-6" /><stop
     offset="0.9697"
     style="stop-color:#BBBEC0"
     id="stop17-2" /></linearGradient><linearGradient
   id="HIGHLIGHT_RIM_3_-9"
   gradientUnits="userSpaceOnUse"
   x1="38.9995"
   y1="-7.7793002"
   x2="38.9995"
   y2="133.2713"
   gradientTransform="translate(1,17)"><stop
     offset="0"
     style="stop-color:#FFFFFF"
     id="stop21-52" /><stop
     offset="1"
     style="stop-color:#000000"
     id="stop23" /></linearGradient><linearGradient
   y2="74.070099"
   x2="38.9995"
   y1="-6.0801001"
   x1="38.9995"
   gradientUnits="userSpaceOnUse"
   id="linearGradient3027"
   xlink:href="#WHITE_3_"
   inkscape:collect="always"
   gradientTransform="translate(1,17)" /><linearGradient
   id="YELLOW1_3_"
   gradientUnits="userSpaceOnUse"
   x1="38.9995"
   y1="0"
   x2="38.9995"
   y2="78.000504"><stop
     offset="0"
     style="stop-color:#FBF6B1"
     id="stop7-91" /><stop
     offset="0.19"
     style="stop-color:#F9F298"
     id="stop9-81" /><stop
     offset="0.5909"
     style="stop-color:#F5E95A"
     id="stop11-95" /><stop
     offset="0.7212"
     style="stop-color:#F4E644"
     id="stop13-32" /></linearGradient><linearGradient
   id="HIGHLIGHT_RIM_3_-5"
   gradientUnits="userSpaceOnUse"
   x1="38.9995"
   y1="-7.7793002"
   x2="38.9995"
   y2="133.2713"><stop
     offset="0"
     style="stop-color:#FFFFFF"
     id="stop17-25" /><stop
     offset="1"
     style="stop-color:#000000"
     id="stop19-8" /></linearGradient><linearGradient
   y2="78.000504"
   x2="38.9995"
   y1="0"
   x1="38.9995"
   gradientUnits="userSpaceOnUse"
   id="linearGradient3021-67"
   xlink:href="#YELLOW1_3_"
   inkscape:collect="always"
   gradientTransform="translate(1,17)" /><linearGradient
   inkscape:collect="always"
   xlink:href="#HIGHLIGHT_RIM_3_-5"
   id="linearGradient4176"
   gradientUnits="userSpaceOnUse"
   x1="38.9995"
   y1="-7.7793002"
   x2="38.9995"
   y2="133.2713"
   gradientTransform="translate(1,17)" /><linearGradient
   id="SVGID_2_"
   gradientUnits="userSpaceOnUse"
   x1="0"
   y1="329.19431"
   x2="16.606899"
   y2="329.19431"
   gradientTransform="matrix(0.20164678,0,0,0.21260856,147.93698,7.693447)"><stop
     offset="0"
     style="stop-color:#FFFFFF"
     id="stop46" /><stop
     offset="0.2886"
     style="stop-color:#FCFCFC"
     id="stop48" /><stop
     offset="0.5203"
     style="stop-color:#F2F2F2"
     id="stop50" /><stop
     offset="0.7322"
     style="stop-color:#E1E1E1"
     id="stop52" /><stop
     offset="0.9313"
     style="stop-color:#C9C9C9"
     id="stop54" /><stop
     offset="1"
     style="stop-color:#BFBFBF"
     id="stop56" /></linearGradient><linearGradient
   id="SVGID_1_-2"
   gradientUnits="userSpaceOnUse"
   x1="8.3037004"
   y1="189.24899"
   x2="8.3037004"
   y2="205.4455"><stop
     offset="0"
     style="stop-color:#FFFFFF"
     id="stop7-94" /><stop
     offset="1"
     style="stop-color:#9DCAEA"
     id="stop9-19" /></linearGradient><linearGradient
   y2="205.4455"
   x2="8.3037004"
   y1="189.24899"
   x1="8.3037004"
   gradientUnits="userSpaceOnUse"
   id="linearGradient3089"
   xlink:href="#SVGID_1_-2"
   inkscape:collect="always" /><linearGradient
   id="SVGID_1_-6"
   gradientUnits="userSpaceOnUse"
   x1="48.452099"
   y1="39.117199"
   x2="48.452099"
   y2="70.455498"><stop
     offset="0.3232"
     style="stop-color:#FAFCEF"
     id="stop4" /><stop
     offset="1"
     style="stop-color:#D0CBC5"
     id="stop6" /></linearGradient><linearGradient
   y2="70.455498"
   x2="48.452099"
   y1="39.117199"
   x1="48.452099"
   gradientUnits="userSpaceOnUse"
   id="linearGradient3005"
   xlink:href="#SVGID_1_-6"
   inkscape:collect="always"
   gradientTransform="matrix(1.9305715,0,0,1.9305715,-56.22195,-37.151171)" /><linearGradient
   id="SVGID_1_-1"
   gradientUnits="userSpaceOnUse"
   x1="298.2988"
   y1="398.78659"
   x2="298.2988"
   y2="464.09549"><stop
     offset="0.3232"
     style="stop-color:#F7FAEE"
     id="stop4286" /><stop
     offset="1"
     style="stop-color:#D2CAC5"
     id="stop4288" /></linearGradient><linearGradient
   gradientTransform="translate(-318.22006,-359.05119)"
   y2="464.09549"
   x2="298.2988"
   y1="398.78659"
   x1="298.2988"
   gradientUnits="userSpaceOnUse"
   id="linearGradient4312"
   xlink:href="#SVGID_1_-1"
   inkscape:collect="always" /><linearGradient
   inkscape:collect="always"
   xlink:href="#SVGID_1_-1"
   id="linearGradient4333"
   gradientUnits="userSpaceOnUse"
   gradientTransform="translate(-318.22006,-359.05119)"
   x1="298.2988"
   y1="398.78659"
   x2="298.2988"
   y2="464.09549" /><linearGradient
   id="SVGID_1_-1-1"
   gradientUnits="userSpaceOnUse"
   x1="298.2988"
   y1="398.78659"
   x2="298.2988"
   y2="464.09549"><stop
     offset="0.3232"
     style="stop-color:#F7FAEE"
     id="stop4286-7" /><stop
     offset="1"
     style="stop-color:#D2CAC5"
     id="stop4288-4" /></linearGradient><linearGradient
   y2="78.000504"
   x2="38.9995"
   y1="0"
   x1="38.9995"
   gradientUnits="userSpaceOnUse"
   id="linearGradient3018-9"
   xlink:href="#PINK1_3_-4"
   inkscape:collect="always"
   gradientTransform="translate(1,17)" /><linearGradient
   id="PINK1_3_-4"
   gradientUnits="userSpaceOnUse"
   x1="38.9995"
   y1="0"
   x2="38.9995"
   y2="78.000504"><stop
     offset="0"
     style="stop-color:#E117E0"
     id="stop7-6-8" /><stop
     offset="0.339"
     style="stop-color:#C911C7"
     id="stop9-8-8" /><stop
     offset="0.7212"
     style="stop-color:#A909A7"
     id="stop11-34-2" /></linearGradient><linearGradient
   y2="78.000504"
   x2="38.9995"
   y1="0"
   x1="38.9995"
   gradientUnits="userSpaceOnUse"
   id="linearGradient4362"
   xlink:href="#PINK1_3_-4"
   inkscape:collect="always"
   gradientTransform="translate(1,1)" /><linearGradient
   inkscape:collect="always"
   xlink:href="#HIGHLIGHT_RIM_1_"
   id="linearGradient3263"
   gradientUnits="userSpaceOnUse"
   x1="47.9995"
   y1="0"
   x2="47.9995"
   y2="144.6673" /><linearGradient
   id="HIGHLIGHT_RIM_1_"
   gradientUnits="userSpaceOnUse"
   x1="47.9995"
   y1="0"
   x2="47.9995"
   y2="144.6673"><stop
     offset="0"
     style="stop-color:#FFFFFF"
     id="stop4495" /><stop
     offset="1"
     style="stop-color:#000000"
     id="stop4497" /></linearGradient><linearGradient
   gradientTransform="translate(-8,-16)"
   y2="144.6673"
   x2="47.9995"
   y1="0"
   x1="47.9995"
   gradientUnits="userSpaceOnUse"
   id="linearGradient3280"
   xlink:href="#HIGHLIGHT_RIM_1_"
   inkscape:collect="always" /><linearGradient
   inkscape:collect="always"
   xlink:href="#HIGHLIGHT_RIM_1_"
   id="linearGradient4456"
   gradientUnits="userSpaceOnUse"
   gradientTransform="translate(-8,-16)"
   x1="47.9995"
   y1="0"
   x2="47.9995"
   y2="144.6673" /><linearGradient
   id="SVGID_1_-17"
   gradientUnits="userSpaceOnUse"
   x1="48.452099"
   y1="39.117199"
   x2="48.452099"
   y2="70.455498"
   osb:paint="gradient"><stop
     offset="0.3232"
     style="stop-color:#FAFCEF"
     id="stop3713" /><stop
     offset="1"
     style="stop-color:#D0CBC5"
     id="stop3715" /></linearGradient><linearGradient
   gradientTransform="translate(103.75,66.953125)"
   y2="70.455498"
   x2="48.452099"
   y1="39.117199"
   x1="48.452099"
   gradientUnits="userSpaceOnUse"
   id="linearGradient5045"
   xlink:href="#SVGID_1_-17"
   inkscape:collect="always" /></defs><sodipodi:namedview
   pagecolor="#ffffff"
   bordercolor="#666666"
   borderopacity="1"
   objecttolerance="1"
   gridtolerance="1"
   guidetolerance="1"
   inkscape:pageopacity="0"
   inkscape:pageshadow="2"
   inkscape:window-width="1920"
   inkscape:window-height="1025"
   id="namedview3065"
   showgrid="false"
   inkscape:zoom="5.12"
   inkscape:cx="43.219197"
   inkscape:cy="55.2125"
   inkscape:window-x="-3"
   inkscape:window-y="-3"
   inkscape:window-maximized="1"
   inkscape:current-layer="layer7"
   showguides="false"
   inkscape:guide-bbox="true"><inkscape:grid
     type="xygrid"
     id="grid3071"
     empspacing="5"
     visible="true"
     enabled="true"
     snapvisiblegridlinesonly="true" /><sodipodi:guide
     orientation="0,1"
     position="10.992188,69"
     id="guide3020" /><sodipodi:guide
     orientation="0,1"
     position="69,11.003906"
     id="guide3022" /><sodipodi:guide
     orientation="1,0"
     position="10.992188,69.007813"
     id="guide3024" /><sodipodi:guide
     orientation="1,0"
     position="68.996094,11.007813"
     id="guide3026" /></sodipodi:namedview>
<linearGradient
   id="RED_x2F_ORANGE_5_2_"
   gradientUnits="userSpaceOnUse"
   x1="47.9995"
   y1="8.0107002"
   x2="47.9995"
   y2="87.9897">
	<stop
   offset="0"
   style="stop-color:#FFDB62"
   id="stop3054" />
	<stop
   offset="0.1393"
   style="stop-color:#FAD15C"
   id="stop3056" />
	<stop
   offset="0.3741"
   style="stop-color:#EDB74D"
   id="stop3058" />
	<stop
   offset="0.4848"
   style="stop-color:#E6A844"
   id="stop3060" />
	<stop
   offset="1"
   style="stop-color:#C96B25"
   id="stop3062" />
</linearGradient>

<g
   inkscape:groupmode="layer"
   id="layer5"
   inkscape:label="DO NOT EDIT -  Bounding Box"
   style="display:none"
   transform="translate(0,-16)"
   sodipodi:insensitive="true"><rect
     style="fill:#000000;fill-opacity:0;stroke:none;display:inline"
     id="rect3119"
     width="80"
     height="80"
     x="0"
     y="16" /></g><g
   inkscape:groupmode="layer"
   id="g3921"
   inkscape:label="PLACE YOUR BACKGROUND HERE"
   style="display:inline"
   transform="translate(0,-16)"
   sodipodi:insensitive="true"><path
     style="fill:#6fb536;fill-opacity:1;stroke:none"
     d="M 40,1 C 11.105,1 1,11.106 1,40 1,68.893 11.105,79 40,79 68.895,79 79,68.893 79,40 79,11.106 68.895,1 40,1 z"
     id="rect3455"
     inkscape:connector-curvature="0"
     transform="translate(0,16)" /></g><g
   inkscape:groupmode="layer"
   id="layer7"
   inkscape:label="CREATE INNER SHADOW HERE"
   style="display:inline;opacity:0.5"
   transform="translate(0,-16)"><path
     style="fill:#000000;display:inline"
     inkscape:connector-curvature="0"
     d="m 20.701606,39.341581 c 0,0 0,0 0.0037,0 h 5.41034 c 0.310034,0 0.559348,-0.252498 0.559949,-0.560143 0,-0.0022 -0.06569,-4.639045 -0.06569,-5.928553 v -0.01531 c 0,-1.059076 0.222289,-1.982412 0.609431,-2.756197 l 0.185024,-0.34749 c -0.02068,0.0037 -0.04142,0.01363 -0.062,0.03427 L 16.829875,40.192757 c -0.02058,0.01689 -0.03337,0.03884 -0.03937,0.06142 0.217421,-0.107614 0.514732,-0.254682 0.556764,-0.273168 0.915486,-0.413076 2.025541,-0.639435 3.3544,-0.639435 z m 42.099461,-1.135093 c -0.429774,-2.300594 -1.797588,-3.434392 -3.034233,-3.880161 -1.334228,-0.482236 -4.039652,-0.981768 -7.438861,-1.382423 -2.734736,-0.322052 -5.949022,-0.296417 -7.890593,-0.236395 -0.233022,-1.596069 -1.352513,-3.054209 -2.605161,-3.559 -3.337504,-1.343371 -8.494062,-1.018835 -9.818052,-0.647787 -1.052021,0.294033 -2.216523,0.896605 -2.864611,1.82521 -0.434636,0.620259 -0.715853,1.414915 -0.718038,2.525064 0,0.628307 0.01748,2.108412 0.03348,3.42346 0.0159,1.31912 0.03322,2.498928 0.03322,2.506982 -5.26e-4,1.174439 -0.952449,2.130273 -2.132062,2.131761 h -5.411238 c -1.154273,0 -2.036168,0.193967 -2.709892,0.500022 -0.674717,0.306356 -1.152584,0.719333 -1.515676,1.207932 -0.722712,0.970241 -0.848213,2.167535 -0.845234,3.389378 0,0 0.01067,0.998459 0.251209,2.930985 0.200029,1.495307 1.821631,11.941173 3.361848,15.118097 0.59721,1.236051 0.994985,1.750885 2.168234,2.295726 2.614098,1.119192 8.585081,2.364285 11.383613,2.720819 2.793457,0.357429 4.546724,1.108758 5.591588,-1.08203 0.0037,-0.0055 0.209272,-0.545036 0.492373,-1.336612 0.907139,-2.748844 1.033342,-5.187857 1.033342,-6.952846 0,-0.179459 0.263325,-0.187707 0.263325,0 0,1.246087 -0.237987,5.655585 3.09296,6.838572 1.314951,0.466338 4.042829,0.8821 6.814527,1.206936 2.506181,0.287969 4.324935,1.274211 4.324935,7.703981 0,3.911859 -0.821684,4.448253 -5.117006,4.448253 -3.481892,0 -4.808961,0.09012 -4.808961,-2.67611 0,-2.235703 2.211159,-2.001387 3.849953,-2.001387 0.731949,0 0.200725,-0.544447 0.200725,-1.923784 0,-1.372089 0.85815,-2.16525 0.04647,-2.185325 -5.666816,-0.15591 -9.001142,-0.0064 -9.001142,7.080637 0,6.433842 2.462163,7.628557 10.504891,7.628557 6.305958,0 8.528839,-0.206488 11.132605,-8.285483 0.515429,-1.594875 1.761416,-6.462067 2.515531,-14.634173 0.476868,-5.167089 -0.449348,-20.762652 -1.184081,-24.698856 z M 51.808571,55.444524 c -0.779054,-0.02721 -1.528393,0.02196 -2.227161,0.134245 0.196656,-1.588215 0.852193,-3.53704 3.174447,-3.455458 2.570672,0.08845 2.930886,2.518111 2.940029,4.163858 -1.08392,-0.483331 -2.425796,-0.791271 -3.887315,-0.842645 z"
     id="path236-7-1-0" /><g
     id="g4394"><path
       style="opacity:0.09090899;fill:#000000;display:inline"
       d="m 34.25,28.71875 c -3.140367,-0.282859 -6.266102,2.261043 -5.298864,5.624938 -0.01179,2.389674 0.975971,6.669933 -2.357386,7.062562 -3.155645,0.450598 -8.528894,-1.424257 -9.96875,2.5625 -0.678031,5.674497 1.320915,11.462818 2.319059,16.951132 0.417899,2.906523 2.230459,5.505688 5.337191,5.798868 4.155333,0.949172 8.600534,2.329687 12.90625,2.125 2.531775,-2.295964 2.094202,-6.403823 2.625,-9.53125 1.783635,-0.940863 0.844502,2.245435 1.3125,3.21875 0.40617,4.558991 5.971561,4.103452 9.28125,4.71875 4.761576,0.216881 4.97626,6.013225 4.71875,9.59375 0.149198,3.860991 -4.454279,3.755246 -7.281021,3.547355 -2.786812,0.680628 -4.71055,-2.651608 -3.062729,-4.797355 1.152111,-1.609222 4.498587,0.189534 3.5,-2.5625 1.182892,-2.493059 -2.501789,-1.197682 -3.96875,-1.28125 -4.608573,0.57788 -4.317315,6.440676 -3.59375,9.875 1.503707,4.586187 7.499019,3.461702 11.25,3.6875 3.695575,0.443363 7.063528,-1.628019 8.0625,-5.28125 4.879226,-13.267997 3.830709,-27.901602 2.28125,-41.75 -0.646813,-4.370654 -5.879102,-4.13193 -9.308441,-4.751082 -2.972493,-0.409419 -5.980003,-0.389313 -8.972809,-0.311418 -0.395157,-4.809715 -6.130525,-4.486937 -9.78125,-4.5 z M 18.75,39 c 2.366205,-0.489369 5.437861,0.241391 7.4375,-0.34375 -0.489578,-1.584461 0.840867,-7.607682 -0.710084,-6.327133 C 23.234944,34.552745 20.992472,36.776372 18.75,39 z M 52.3125,51.625 C 55.298416,51.235456 56.555303,54.503889 56.1875,57 53.950045,56.002373 51.406443,55.621581 49,56.21875 49.100272,54.187333 49.957331,51.729673 52.3125,51.625 z"
       id="path4396"
       inkscape:connector-curvature="0" /><path
       style="opacity:0.09090899;fill:#000000;display:inline"
       d="M 34.25,28.625 C 31.423192,28.421211 28.13767,30.442619 28.851022,33.643717 28.462398,36.03805 30.096307,39.851247 27.3125,41.125 24.015523,42.043872 19.526391,39.98725 17,42.90625 c -1.744491,3.81766 0.194571,8.179158 0.578677,12.134612 0.957764,3.554795 0.897947,7.799754 3.577573,10.584138 4.917386,2.149969 10.33212,2.928431 15.65625,3.4375 2.396083,-0.874266 2.223784,-4.247223 2.78125,-6.3125 0.534263,-1.029121 -0.627883,-3.447374 0.90625,-3.59375 0.793229,1.592192 0.02553,3.976951 1.3125,5.5625 2.367803,2.882822 6.765635,1.821877 9.96875,2.9375 3.76761,1.380173 3.313425,6.42106 3.1875,9.71875 -0.239813,3.255069 -4.211629,3.027472 -6.625,2.9375 -1.976591,0.333773 -4.437369,-0.743005 -4,-3.09375 -0.154413,-2.245971 2.502963,-2.635814 4.21875,-2.40625 -0.29586,-1.089824 -0.252409,-2.274396 0.1875,-3.28125 -3.02445,-0.181693 -7.481518,-0.321577 -8.1875,3.5 -0.557936,3.294001 -0.912945,8.436584 3.03125,9.6875 4.076209,0.949654 8.577199,1.031985 12.59375,0.125 4.109238,-2.103848 4.957344,-7.620487 5.93136,-11.737461 2.507916,-11.298244 1.56383,-22.979131 0.351567,-34.376638 -0.08306,-3.259636 -3.367151,-4.67476 -6.146573,-4.793344 C 52.306466,33.164835 48.20654,32.964022 44.125,33.125 43.937782,29.985981 40.728827,28.703848 37.88461,28.698264 36.680922,28.579107 35.458249,28.561111 34.25,28.625 z M 18.375,39.21875 c 2.536645,-0.697113 5.522882,0.09189 7.90625,-0.4375 0.07343,-2.471238 -0.279219,-5.132676 0.09375,-7.5 -2.666667,2.645833 -5.333333,5.291667 -8,7.9375 z m 33.9375,12.5 c 2.805533,-0.373467 4.165894,2.777701 3.78125,5.15625 -2.16839,-0.990058 -4.615187,-1.310204 -6.96875,-0.78125 0.0681,-1.935909 0.990092,-4.272708 3.1875,-4.375 z"
       id="path4400"
       inkscape:connector-curvature="0" /><path
       style="opacity:0.09090899;fill:#000000;display:inline"
       d="m 34.25,28.53125 c -2.631121,-0.195027 -5.982879,1.570545 -5.497273,4.612488 -0.220344,2.232881 0.509121,4.685243 -0.252727,6.793762 -1.339538,2.225575 -4.47358,0.943628 -6.625,1.28125 -2.369303,-0.288147 -5.471454,0.635187 -5.59375,3.46875 -0.199102,5.242727 1.237147,10.413953 2.280782,15.560628 0.639086,2.484015 1.351425,5.708133 4.312968,6.251872 4.561966,1.402095 9.335909,2.365255 13.9375,2.6875 2.182346,-0.735078 2.219862,-3.631148 2.75,-5.53125 0.511541,-1.364831 -0.166852,-3.141642 0.5625,-4.40625 1.324461,0.147843 0.274019,2.270744 0.742787,3.107362 0.164311,2.513103 2.260193,4.296504 4.725963,4.392638 2.615417,0.803904 6.368361,0.02105 8.0625,2.375 1.554617,2.666984 1.57285,6.118729 1.005524,9.067984 -0.815642,2.533898 -4.422079,1.934527 -6.617886,2.016679 -1.672937,0.199385 -3.703384,-0.575228 -3.606388,-2.490913 -0.448028,-2.088445 1.745643,-3.097223 3.5,-2.8125 1.512629,0.298434 -0.0062,-1.786691 0.6875,-2.59375 0.901515,-1.489838 -1.274334,-0.726041 -2.1125,-0.90625 -2.489764,-0.21962 -5.615859,0.740928 -6.04375,3.59375 -0.449895,2.908566 -0.867999,6.727212 1.5,9 3.176489,2.052675 7.449053,1.37775 11.161078,1.458719 3.033532,0.166973 5.755872,-1.677363 6.756759,-4.583368 2.727007,-6.424917 3.484915,-13.460694 3.894663,-20.344101 -0.0084,-7.563125 -0.305427,-15.253348 -1.34375,-22.6875 -0.62883,-3.095485 -3.993281,-3.817823 -6.6875,-4.125 -3.756733,-0.65125 -7.700308,-0.841766 -11.5625,-0.6875 -0.176105,-3.015921 -3.208565,-4.331577 -5.875,-4.375 -1.342277,-0.182012 -2.710875,-0.186846 -4.0625,-0.125 z m -16.1875,10.875 c 2.66114,-0.845852 5.712192,0.0043 8.3125,-0.53125 0.121599,-2.614169 -0.385434,-5.317794 0.1875,-7.875 -2.833333,2.802083 -5.666667,5.604167 -8.5,8.40625 z M 52.34375,51.8125 c 2.731687,-0.343653 3.935246,2.606189 3.65625,4.90625 -2.119391,-0.964521 -4.509302,-1.213176 -6.75,-0.75 0.116486,-1.898623 0.935264,-4.048767 3.09375,-4.15625 z"
       id="path4404"
       inkscape:connector-curvature="0" /><path
       style="opacity:0.09090899;fill:#000000;display:inline"
       d="m 34.21875,28.40625 c -2.612405,-0.07584 -5.829979,1.480605 -5.59375,4.4375 -0.107258,2.282279 0.285025,4.628641 -0.09375,6.875 -0.575024,1.379355 -2.200895,1.526233 -3.55625,1.375 -2.533306,0.173385 -5.562473,-0.592619 -7.6625,1.15625 -2.01977,2.156826 -1.075584,5.377873 -0.782927,7.989099 0.811381,4.616472 1.406204,9.363526 3.157927,13.729651 0.89351,2.603845 4.084729,2.79915 6.451455,3.562099 3.474873,0.793341 7.003978,1.550766 10.560052,1.76175 2.05287,-0.349934 2.173791,-2.863338 2.750895,-4.473471 0.46915,-1.751972 0.426595,-3.632348 0.612598,-5.381628 0.942473,-0.336283 0.447509,1.190222 0.5625,1.6875 0.05588,2.415739 1.151232,5.083569 3.725278,5.454757 2.605801,0.767281 5.428923,0.599906 7.978728,1.489767 2.329291,1.243775 2.434843,4.445478 2.514744,6.842976 0.06949,1.825115 0.08062,4.58028 -2.1875,4.93125 -2.266764,0.323441 -4.673593,0.466335 -6.90625,-0.0625 -1.400145,-0.614576 -1.612183,-3.017957 -0.629399,-4.098908 0.955283,-0.921424 2.524593,-0.501131 3.660649,-0.713592 -0.283241,-1.187354 -0.216019,-2.484498 0.1875,-3.59375 -2.40386,-0.129173 -5.432372,-0.44769 -7.40625,1.3125 -1.866747,2.103749 -1.641452,5.419475 -1.34375,8.125 0.256944,2.334167 2.02475,4.089097 4.352366,4.382973 3.274651,0.595618 6.665388,0.538655 9.970308,0.242866 3.109643,-0.175507 4.963752,-2.978551 5.933531,-5.678864 C 62.617333,74.028986 63.34672,67.874348 63.875,61.8125 63.997267,54.163969 63.627248,46.491625 62.72069,38.895909 62.586779,36.450179 60.738009,34.355866 58.274273,34.109575 53.693008,33.065474 48.972141,32.704978 44.28125,32.90625 43.986762,30.668573 42.287152,29.081003 40.048378,28.813602 38.136451,28.400671 36.168768,28.30872 34.21875,28.40625 z m -16.5,11.21875 c 2.755366,-0.926932 5.828394,-0.211841 8.59375,-0.53125 0.453579,-1.268666 0.01262,-2.811733 0.143638,-4.181193 0.02227,-1.420307 -0.17696,-2.889276 0.293862,-4.256307 -3.010417,2.989583 -6.020833,5.979167 -9.03125,8.96875 z m 34.625,12.3125 c 1.932785,-0.266219 3.402358,1.34518 3.473277,3.196774 0.350738,1.256807 -0.100683,1.66551 -1.224125,0.954709 -1.686215,-0.502494 -3.520782,-0.629401 -5.249152,-0.245233 0.178494,-1.792861 0.914789,-3.839217 3,-3.90625 z"
       id="path4408"
       inkscape:connector-curvature="0" /><path
       style="opacity:0.09090899;fill:#000000;display:inline"
       d="m 34.21875,28.3125 c -1.439962,0.04009 -2.906419,0.339024 -4.09375,1.1875 -0.418335,0.235977 -0.864807,0.761981 -1.089374,1.206373 -0.83927,1.427076 -0.386837,3.163982 -0.480741,4.73727 -0.03577,1.297698 0.12531,2.616018 -0.02401,3.901225 C 28.248688,40.441839 27.114119,41.164926 25.975,41 c -2.084755,0.05628 -4.190586,-0.122384 -6.261139,0.11019 -1.143557,0.143275 -2.32815,0.712335 -2.901361,1.57731 -1.27341,1.828829 -0.771414,4.178645 -0.59375,6.25 0.749016,4.594621 1.463966,9.222737 2.817148,13.687085 0.413556,1.083012 0.810294,2.258052 1.651602,3.000415 1.500288,1.144743 3.461224,1.396772 5.225933,1.952058 3.373334,0.820863 6.798399,1.422059 10.242817,1.829192 1.291504,0.163152 2.360422,-0.892195 2.619114,-2.093555 0.94263,-2.42098 1.325632,-5.034597 1.287136,-7.625195 0.08804,-0.426063 0.623088,-0.142341 0.46875,0.23125 -0.05253,1.781284 0.134041,3.683784 1.1875,5.175 0.262065,0.454909 0.790407,0.828864 1.28125,1.09375 1.648843,0.770274 3.536103,0.877587 5.3125,1.21875 1.587995,0.276365 3.472706,0.121908 4.71875,1.28125 0.633359,0.595138 1.012853,1.343678 1.243992,2.253012 0.540362,2.14589 0.600199,4.409166 0.34415,6.599812 -0.159549,0.997956 -0.635774,1.787685 -1.621794,2.112148 -2.035941,0.510306 -4.175111,0.361867 -6.252487,0.268588 -1.062066,-0.03245 -2.037744,-0.78136 -2.041567,-1.894897 -0.174071,-0.96414 -0.0526,-2.164704 0.934806,-2.600913 1.009107,-0.452411 2.189658,-0.186289 3.23665,-0.36275 -0.155421,-1.124774 -0.359984,-2.32844 0.15625,-3.40625 0.314468,-0.618621 -0.542054,-0.418409 -0.887179,-0.458702 -2.26629,-0.01455 -4.873529,-0.205776 -6.675321,1.427452 -1.13232,1.197112 -1.462293,3.048606 -1.519975,4.712001 -0.04219,2.3087 -0.03213,4.993107 1.763207,6.702122 1.018022,0.878885 2.548795,1.239718 3.925942,1.457212 2.548021,0.289752 5.131263,0.261516 7.691554,0.1692 1.463474,-0.114588 3.022326,-0.313874 4.201772,-1.259285 0.498104,-0.316922 1.087238,-0.892564 1.375,-1.4375 1.782518,-2.585598 2.603671,-5.693869 3.30121,-8.722988 C 63.087332,70.083849 63.713226,65.8597 63.973627,61.612559 64.122193,55.645645 63.764423,49.677366 63.337223,43.727651 63.113285,41.658991 63.054341,39.546566 62.530132,37.527895 62.175759,36.338173 61.380265,35.243828 60.323045,34.69453 58.989678,34.034699 57.450741,33.831087 55.991457,33.560114 52.155141,32.848985 48.238809,32.659696 44.34375,32.8125 44.170528,31.628855 43.575169,30.496039 42.6875,29.78125 41.141756,28.666476 39.132552,28.537765 37.294033,28.330719 36.270119,28.278547 35.242774,28.251339 34.21875,28.3125 z M 17.3125,39.875 c 2.281923,-0.969484 4.802895,-0.52317 7.20625,-0.625 0.624826,-0.08508 1.362723,0.170858 1.91875,-0.125 0.340476,-0.62936 0.05458,-1.464495 0.133175,-2.174852 0.04,-1.816492 -0.170048,-3.654381 0.07158,-5.456677 -0.06409,-0.349413 0.666984,-1.575135 0.207771,-1.12543 -3.179176,3.168987 -6.358352,6.337973 -9.537528,9.506959 z m 35.03125,12.15625 c 1.350889,-0.148021 2.758653,0.621253 3.096674,1.968979 0.293807,0.775639 0.374024,1.613177 0.340826,2.437271 -1.962487,-0.876176 -4.202756,-1.128219 -6.3125,-0.71875 0.159494,-1.455671 0.705656,-3.245635 2.317953,-3.583873 0.180921,-0.05434 0.370334,-0.08126 0.557047,-0.103627 z"
       id="path4412"
       inkscape:connector-curvature="0" /><path
       style="opacity:0.09090899;fill:#000000;display:inline"
       d="m 34.21875,28.125 c -1.885068,0.05324 -3.962243,0.53364 -5.125,2.125 -1.075824,1.328554 -0.674343,3.196446 -0.730001,4.793659 -0.04066,1.418993 0.135507,2.865483 -0.02589,4.267939 -0.238476,0.862841 -1.085329,1.565485 -2.062861,1.500902 -2.173095,0.04917 -4.363014,-0.105993 -6.525,0.09375 -1.472413,0.144585 -2.852083,0.954898 -3.494911,2.290384 -0.82236,2.055649 -0.37223,4.334091 -0.104904,6.461938 0.691315,4.378223 1.412972,8.778265 2.698213,13.028513 0.532953,1.522881 1.213449,3.244516 2.86907,3.78849 3.252146,1.260137 6.707392,1.891304 10.126282,2.524425 1.783164,0.111683 3.552522,0.801652 5.34375,0.5 1.434647,-0.428975 1.736227,-2.035606 2.180387,-3.28974 0.653244,-2.095524 0.908537,-4.30052 0.882113,-6.49151 0.222705,0.01559 0.02768,0.962028 0.09375,1.29375 0.07726,1.828895 0.503188,3.86588 2.03125,5.01875 1.186077,0.912676 2.825609,0.98726 4.264668,1.29932 1.808239,0.416202 3.742263,0.285361 5.475948,0.973118 0.52483,0.299054 0.916208,0.579077 1.259384,1.071312 0.967383,1.502988 1.094142,3.3922 1.1875,5.1375 -0.03328,1.392092 0.160157,2.932162 -0.5625,4.175 -0.468299,0.705329 -1.572854,0.993725 -2.474504,1.0412 -1.689921,0.115372 -3.411799,0.168584 -5.092633,-0.05909 C 45.478194,79.572455 44.91046,78.81151 44.87337,77.896471 44.731353,77.07254 44.872535,75.996827 45.675123,75.660626 46.645501,75.104518 47.861564,75.45255 48.90625,75.25 49.326414,74.859965 48.803488,74.189331 48.899598,73.681471 48.732684,72.85716 49.173474,72.095831 49.28125,71.3125 49.077856,70.781294 48.282603,71.12378 47.8125,71 c -2.099284,0.0032 -4.503589,-0.122654 -6.21875,1.25 -1.395097,1.188776 -1.731137,3.134377 -1.822488,4.88725 -0.05231,2.258098 -0.07718,4.779737 1.384988,6.644 0.955379,1.075418 2.40999,1.563677 3.821574,1.786858 2.553025,0.459426 5.170178,0.319972 7.752983,0.324838 1.949366,-0.104811 4.123124,-0.332451 5.519193,-1.830446 1.561898,-1.498528 2.30734,-3.626588 3.029762,-5.632938 1.452082,-4.505233 2.113014,-9.21974 2.645049,-13.909111 0.526336,-4.622076 0.20064,-9.284384 0.03767,-13.918761 C 63.701861,46.310242 63.540076,41.992584 62.8125,37.75 62.379906,35.945858 61.000465,34.405054 59.153524,34.036188 56.038636,33.235599 52.827181,32.825196 49.619009,32.638611 47.923052,32.557108 46.227689,32.568653 44.53125,32.625 44.207372,30.940862 43.104474,29.358417 41.407756,28.884502 39.103193,28.145283 36.622258,28.022208 34.21875,28.125 z m -6.875,1.53125 C 23.735512,33.256005 20.079591,36.810823 16.5,40.4375 c 1.351268,-0.613909 2.809623,-1.086385 4.31875,-1 1.861068,-0.02205 3.7329,0.04334 5.5875,-0.03125 0.676133,-0.479452 0.251844,-1.49674 0.354748,-2.224872 0.03039,-1.85114 -0.150631,-3.718391 0.04656,-5.559104 0.105044,-0.780545 0.543971,-1.45018 0.786188,-2.184774 -0.08333,0.07292 -0.166667,0.145833 -0.25,0.21875 z M 52.375,52.21875 c 1.389159,-0.171079 2.744528,0.811536 2.995062,2.190226 0.147357,0.559473 0.255888,1.1347 0.223688,1.716024 -1.855065,-0.736611 -3.90318,-0.947888 -5.875,-0.65625 0.115916,-1.497338 0.969883,-3.16996 2.65625,-3.25 z"
       id="path4416"
       inkscape:connector-curvature="0" /><path
       style="opacity:0.09090899;fill:#000000;display:inline"
       d="m 34.21875,28.125 c -1.885068,0.05324 -3.962243,0.53364 -5.125,2.125 -1.075824,1.328554 -0.674343,3.196446 -0.730001,4.793659 -0.04066,1.418993 0.135507,2.865483 -0.02589,4.267939 -0.238476,0.862841 -1.085329,1.565485 -2.062861,1.500902 -2.173095,0.04917 -4.363014,-0.105993 -6.525,0.09375 -1.472413,0.144585 -2.852083,0.954898 -3.494911,2.290384 -0.82236,2.055649 -0.37223,4.334091 -0.104904,6.461938 0.691315,4.378223 1.412972,8.778265 2.698213,13.028513 0.532953,1.522881 1.213449,3.244516 2.86907,3.78849 3.252146,1.260137 6.707392,1.891304 10.126282,2.524425 1.783164,0.111683 3.552522,0.801652 5.34375,0.5 1.434647,-0.428975 1.736227,-2.035606 2.180388,-3.28974 0.653243,-2.095524 0.908536,-4.30052 0.882112,-6.49151 0.222705,0.01559 0.02768,0.962028 0.09375,1.29375 0.07726,1.828895 0.503188,3.86588 2.03125,5.01875 1.186077,0.912676 2.825609,0.98726 4.264668,1.29932 1.808239,0.416202 3.742263,0.285361 5.475948,0.973118 0.52483,0.299054 0.916208,0.579077 1.259384,1.071312 0.967383,1.502988 1.094142,3.3922 1.1875,5.1375 -0.03328,1.392092 0.160157,2.932162 -0.5625,4.175 -0.468299,0.705329 -1.572854,0.993725 -2.474504,1.0412 -1.689921,0.115372 -3.411799,0.168584 -5.092633,-0.05909 C 45.478194,79.572455 44.91046,78.81151 44.87337,77.896471 44.731353,77.07254 44.872535,75.996827 45.675123,75.660626 46.645501,75.104518 47.861564,75.45255 48.90625,75.25 49.326414,74.859965 48.803488,74.189331 48.899598,73.681471 48.732684,72.85716 49.173474,72.095831 49.28125,71.3125 49.077856,70.781294 48.282603,71.12378 47.8125,71 c -2.099284,0.0032 -4.503589,-0.122654 -6.21875,1.25 -1.395097,1.188776 -1.731137,3.134377 -1.822488,4.88725 -0.05231,2.258098 -0.07718,4.779737 1.384988,6.644 0.955379,1.075418 2.40999,1.563677 3.821574,1.786858 2.553025,0.459426 5.170178,0.319972 7.752983,0.324838 1.949366,-0.104811 4.123124,-0.332451 5.519193,-1.830446 1.561898,-1.498528 2.30734,-3.626588 3.029762,-5.632938 1.452082,-4.505233 2.113014,-9.21974 2.645049,-13.909111 0.526336,-4.622076 0.20064,-9.284384 0.03767,-13.918761 C 63.701861,46.310242 63.540076,41.992584 62.8125,37.75 62.379906,35.945858 61.000465,34.405054 59.153524,34.036188 56.038636,33.235599 52.827181,32.825196 49.619009,32.638611 47.923052,32.557108 46.227689,32.568653 44.53125,32.625 44.207372,30.940862 43.104474,29.358417 41.407756,28.884502 39.103193,28.145283 36.622258,28.022208 34.21875,28.125 z m -6.875,1.53125 C 23.735512,33.256005 20.079591,36.810823 16.5,40.4375 c 1.351268,-0.613909 2.809623,-1.086385 4.31875,-1 1.861068,-0.02205 3.7329,0.04334 5.5875,-0.03125 0.676133,-0.479452 0.251844,-1.49674 0.354748,-2.224872 0.03039,-1.85114 -0.150631,-3.718391 0.04656,-5.559104 0.105044,-0.780545 0.543971,-1.45018 0.786188,-2.184774 -0.08333,0.07292 -0.166667,0.145833 -0.25,0.21875 z M 52.375,52.21875 c 1.389159,-0.171079 2.744528,0.811536 2.995062,2.190226 0.147357,0.559473 0.255888,1.1347 0.223688,1.716024 -1.855065,-0.736611 -3.90318,-0.947888 -5.875,-0.65625 0.115916,-1.497338 0.969883,-3.16996 2.65625,-3.25 z"
       id="path4420"
       inkscape:connector-curvature="0" /><path
       style="opacity:0.09090899;fill:#000000;display:inline"
       d="m 34.21875,28.03125 c -2.598278,-0.06588 -5.796308,1.286561 -5.954109,4.199309 -0.100479,2.363839 0.177839,4.773951 -0.04589,7.113191 -0.555705,1.810033 -2.768643,1.344607 -4.24375,1.375 -2.556547,0.0559 -5.962327,-0.49268 -7.544524,1.985256 -1.466537,2.71433 -0.399231,5.945053 -0.08673,8.827244 0.848062,4.390624 1.356458,8.951379 3.1875,13.0625 1.202302,2.436873 4.349694,2.601752 6.70905,3.356174 3.454978,0.765173 6.956143,1.536015 10.490129,1.719469 2.259876,-0.215966 2.51511,-2.969092 3.0886,-4.726757 0.185223,-1.06631 0.434534,-2.137531 0.462221,-3.223886 0.128149,2.380145 1.455798,4.874176 3.975811,5.233824 2.536195,0.708062 5.22975,0.653604 7.742939,1.391176 2.409402,1.270199 2.410619,4.541301 2.46875,6.96875 0.09459,1.670234 -0.113852,4.053357 -2.101811,4.198156 -2.120367,0.245676 -4.391501,0.446979 -6.460689,-0.104406 -1.186795,-0.537192 -1.322818,-2.585572 -0.46875,-3.46875 0.988571,-0.948292 2.613513,-0.164615 3.6875,-0.71875 -0.07572,-1.237802 -0.337664,-2.559048 0.25,-3.75 -0.03651,-1.004114 -1.511255,-0.379666 -2.1625,-0.5625 -2.624105,-0.128721 -6.038692,0.280225 -6.9625,3.125 -0.856431,2.731934 -0.839735,5.818144 0.0625,8.53125 1.181253,2.946968 4.833906,3.297279 7.649568,3.393585 3.016571,-0.03521 6.329384,0.459148 9.100432,-0.893585 3.015738,-1.764339 3.926603,-5.456725 4.914857,-8.605432 1.797486,-7.29906 2.685051,-14.85017 2.218437,-22.36865 C 63.930997,48.5616 63.818143,42.981297 62.843004,37.529013 62.310715,35.237733 60.209939,33.897115 57.977865,33.646334 53.586614,32.708271 49.080045,32.329462 44.59375,32.53125 44.248903,30.191171 42.247279,28.63531 39.94617,28.398277 38.062623,28.02545 36.133771,27.935218 34.21875,28.03125 z M 27.25,29.5625 c -3.587275,3.643642 -7.370044,7.13065 -10.837,10.870449 0.392376,0.216868 1.799752,-0.786554 2.69124,-0.773733 2.432099,-0.332772 4.947935,0.0397 7.36451,-0.190466 0.87348,-0.714238 0.172693,-2.162147 0.375,-3.15625 0.05253,-2.248286 -0.411742,-4.668532 0.803529,-6.692704 C 27.918693,29.060074 27.532101,29.381229 27.25,29.5625 z m 25.125,22.75 c 2.084887,-0.284853 3.250696,1.866862 3.125,3.6875 -1.789638,-0.717547 -3.784606,-0.910903 -5.6875,-0.625 0.173856,-1.419881 0.955184,-2.987605 2.5625,-3.0625 z"
       id="path4424"
       inkscape:connector-curvature="0" /><path
       style="opacity:0.09090899;fill:#000000;display:inline"
       d="m 34.1875,27.90625 c -2.834056,-0.09055 -6.292252,1.701924 -6.0625,4.9375 -0.216629,2.276423 0.489122,4.77802 -0.21875,6.9375 -1.342561,1.64944 -3.857472,0.449054 -5.73125,0.8125 -2.754973,-0.294563 -6.200353,0.731198 -6.498676,3.890735 -0.31472,4.673283 1.081636,9.272263 1.854926,13.859265 0.85939,3.230508 1.210773,7.90624 5.15625,8.71875 4.659967,1.37565 9.40999,2.417954 14.1875,2.71875 2.657753,-0.608483 2.726347,-4.076893 3.300972,-6.295638 0.183783,-1.83119 0.493332,1.431468 1.199028,1.858138 2.051963,2.404567 5.766679,2.062958 8.661921,2.685346 2.430564,-0.179414 4.123716,2.109578 4.119329,4.377154 0.115993,2.11738 0.743473,4.931279 -0.65625,6.53125 -2.150767,1.075546 -4.902379,0.634946 -7.21875,0.5 -1.8989,-0.446913 -1.648409,-4.096314 0.40625,-3.84375 0.874694,-0.185441 3.080224,0.432904 2.497421,-1.167856 -0.474612,-1.138417 0.440096,-2.295803 0.190079,-3.394644 -1.833385,-0.553478 -4.065547,-0.243032 -5.96875,0.09375 -3.436751,0.774391 -4.047922,4.723534 -3.875,7.6875 -0.140448,2.997353 1.334792,6.372953 4.605841,6.781609 3.884836,0.71398 8.043193,0.843093 11.894159,0.03089 4.220259,-1.473566 5.280919,-6.550438 6.354658,-10.428155 1.753073,-7.488678 2.418305,-15.156923 1.875774,-22.852234 C 63.900558,47.194679 63.987483,41.894449 62.75,36.90625 c -1.363573,-3.653243 -5.942834,-3.451747 -9.15625,-4.125 -2.939322,-0.460748 -6.078874,-0.397853 -8.9375,-0.4375 -0.479335,-3.1598 -3.819279,-4.152672 -6.578933,-4.34971 -1.287979,-0.137476 -2.596053,-0.149675 -3.889817,-0.08779 z m -7,1.59375 c -3.675114,3.797501 -7.684812,7.311117 -11.15625,11.28125 2.412865,-1.195517 5.014309,-1.248163 7.6875,-1.125 1.087526,-0.120668 3.388974,0.610264 3.277453,-1.174976 0.138403,-3.110352 -0.664882,-6.381637 0.85613,-9.214438 C 28.253701,28.492386 27.339526,29.50472 27.1875,29.5 z m 25.15625,22.9375 c 1.923586,-0.375122 3.173652,1.727417 3.03125,3.40625 -1.722144,-0.639086 -3.627914,-0.907432 -5.4375,-0.59375 0.150812,-1.313148 0.983675,-2.799371 2.40625,-2.8125 z"
       id="path4428"
       inkscape:connector-curvature="0" /><path
       style="opacity:0.09090899;fill:#000000;display:inline"
       d="m 34.1875,27.8125 c -3.278339,-0.196309 -6.833982,2.208989 -6.148978,5.831217 -0.469591,2.102897 1.107608,5.148944 -0.851022,6.668783 -3.55049,0.859435 -8.776613,-1.251649 -11.03125,2.5 -1.701207,3.89682 0.204526,8.331266 0.606095,12.354082 0.996139,3.72162 1.019886,8.262175 3.893905,11.083418 4.897681,2.271151 10.49209,3.031345 15.875,3.65625 3.086707,-0.313257 3.204986,-4.262679 3.8125,-6.625 0.631502,3.668905 4.655406,4.242509 7.696043,4.596136 2.43217,0.0616 5.546174,0.541986 5.851345,3.507224 0.22338,2.326882 1.066725,5.419669 -0.453638,7.49039 -2.291778,0.932893 -5.296812,0.879468 -7.71875,0.21875 -1.2602,-1.299464 -0.506738,-3.955315 1.59375,-3.46875 1.124419,0.322253 2.648092,-0.122077 1.9375,-1.53125 -0.591065,-1.122676 1.26476,-3.034493 -0.40625,-3.375 -3.268651,-0.206486 -7.873887,-0.235719 -8.90625,3.625 -0.870587,3.606873 -1.141327,8.830901 2.59375,10.84375 4.140736,1.447835 8.87582,1.260417 13.125,0.625 4.950598,-1.306701 5.933439,-7.466944 7.111092,-11.735701 2.69951,-11.775995 1.777198,-23.977043 0.459169,-35.868162 -0.374335,-3.36027 -3.689659,-4.843935 -6.746716,-5.082888 C 52.615398,32.413066 48.675496,32.13939 44.75,32.3125 c -0.920591,-4.717339 -6.795644,-4.527603 -10.5625,-4.5 z m -7.0625,1.625 c -3.719243,3.877196 -7.853498,7.402031 -11.3125,11.5 3.337094,-1.758776 7.145381,-0.982003 10.75,-1.28125 1.325541,-1.46498 0.07239,-3.93897 0.478379,-5.743653 -0.2867,-1.861155 0.460667,-3.457486 1.052871,-5.162597 -0.322917,0.229167 -0.645833,0.458333 -0.96875,0.6875 z m 25.28125,23.09375 c 1.878061,-0.299011 2.935328,1.612307 2.875,3.1875 -1.584499,-0.701347 -3.518353,-0.700765 -5.1875,-0.6875 0.140858,-1.163591 0.971603,-2.536125 2.3125,-2.5 z"
       id="path4432"
       inkscape:connector-curvature="0" /><path
       style="opacity:0.09090899;fill:#000000;display:inline"
       d="m 34.1875,27.71875 c -3.675129,-0.295151 -7.192818,2.748177 -6.236364,6.624938 -0.331244,1.810508 1.203686,5.781238 -1.576136,6.062562 -3.524936,0.213987 -9.329863,-1.209516 -10.6875,3.28125 -0.877899,5.665004 1.187645,11.429285 2.15625,17 0.624561,2.958699 1.983676,6.400307 5.46875,6.78125 4.538429,1.176735 9.304756,2.555596 14.03125,2.40625 2.380227,-0.838696 2.501592,-4.623712 3.0625,-6 1.721859,5.013964 8.121162,3.230145 11.9375,5.03125 2.35436,2.205323 2.01999,6.356831 1.4375,9.34375 -1.591783,1.924726 -5.167001,1.019748 -7.53125,0.96875 -1.858912,-0.652217 -1.111692,-4.128757 1.09375,-3.5 1.480554,0.493085 2.678914,-0.485884 1.96875,-1.96875 -0.167525,-1.144647 1.232594,-3.438968 -0.968521,-3.140145 -3.509541,-0.480934 -8.338529,0.422319 -8.781479,4.671395 -0.726757,4.007347 -0.275102,9.896245 4.6875,10.5625 4.330614,0.527719 9.292916,1.21914 13.28125,-0.6875 4.575578,-3.707325 5.090698,-10.394608 6.1893,-15.858697 C 65.374396,58.82211 64.48101,48.070357 63.1875,37.625 61.994132,32.67292 55.89001,33.08861 51.845803,32.392232 c -2.290595,-0.4004 -5.100523,0.06066 -7.064553,-0.423482 -1.218875,-4.516372 -6.868289,-4.252763 -10.59375,-4.25 z m -7.125,1.65625 c -3.769204,3.971464 -8.049284,7.506845 -11.5,11.75 3.43295,-1.812687 7.365271,-1.077928 11.0625,-1.40625 1.527686,-1.850313 -0.01798,-5.000559 0.5,-7.28125 -0.248032,-1.304756 2.475158,-5.269354 -0.06224,-3.06269 L 27.0625,29.375 z m 25.375,23.25 c 1.668868,-0.40573 3.059152,1.94933 2.5625,2.875 -1.421391,-0.736775 -3.756712,-0.33172 -4.75,-0.75 0.226264,-1.077692 1.044373,-2.14317 2.1875,-2.125 z"
       id="path4436"
       inkscape:connector-curvature="0" /></g></g><g
   inkscape:groupmode="layer"
   id="layer2"
   inkscape:label="PLACE YOUR GRAPHIC HERE"
   style="display:inline"
   transform="translate(0,-16)"
   sodipodi:insensitive="true"><path
     style="fill:#ffffff;display:inline"
     inkscape:connector-curvature="0"
     d="m 20.701606,38.341175 c 0,0 0,0 0.0037,0 h 5.41034 c 0.310034,0 0.559348,-0.252498 0.559949,-0.560143 0,-0.0022 -0.06569,-4.639045 -0.06569,-5.928553 v -0.01531 c 0,-1.059076 0.222289,-1.982412 0.609431,-2.756197 l 0.185024,-0.34749 c -0.02068,0.0037 -0.04142,0.01363 -0.062,0.03427 L 16.829875,39.192351 c -0.02058,0.01689 -0.03337,0.03884 -0.03937,0.06142 0.217421,-0.107614 0.514732,-0.254682 0.556764,-0.273168 0.915486,-0.413076 2.025541,-0.639435 3.3544,-0.639435 z m 42.099461,-1.135093 c -0.429774,-2.300594 -1.797588,-3.434392 -3.034233,-3.880161 -1.334228,-0.482236 -4.039652,-0.981768 -7.438861,-1.382423 -2.734736,-0.322052 -5.949022,-0.296417 -7.890593,-0.236395 -0.233022,-1.596069 -1.352513,-3.054209 -2.605161,-3.559 -3.337504,-1.343371 -8.494062,-1.018835 -9.818052,-0.647787 -1.052021,0.294033 -2.216523,0.896605 -2.864611,1.82521 -0.434636,0.620259 -0.715853,1.414915 -0.718038,2.525064 0,0.628307 0.01748,2.108412 0.03348,3.42346 0.0159,1.31912 0.03322,2.498928 0.03322,2.506982 -5.26e-4,1.174439 -0.952449,2.130273 -2.132062,2.131761 h -5.411238 c -1.154273,0 -2.036168,0.193967 -2.709892,0.500022 -0.674717,0.306356 -1.152584,0.719333 -1.515676,1.207932 -0.722712,0.970241 -0.848213,2.167535 -0.845234,3.389378 0,0 0.01067,0.998459 0.251209,2.930985 0.200029,1.495307 1.821631,11.941173 3.361848,15.118097 0.59721,1.236051 0.994985,1.750885 2.168234,2.295726 2.614098,1.119192 8.585081,2.364285 11.383613,2.720819 2.793457,0.357429 4.546724,1.108758 5.591588,-1.08203 0.0037,-0.0055 0.209272,-0.545036 0.492373,-1.336612 0.907139,-2.748844 1.033342,-5.187857 1.033342,-6.952846 0,-0.179459 0.263325,-0.187707 0.263325,0 0,1.246087 -0.237987,5.655585 3.09296,6.838572 1.314951,0.466338 4.042829,0.8821 6.814527,1.206936 2.506181,0.287969 4.324935,1.274211 4.324935,7.703981 0,3.911859 -0.821684,4.448253 -5.117006,4.448253 -3.481892,0 -4.808961,0.09012 -4.808961,-2.67611 0,-2.235703 2.211159,-2.001387 3.849953,-2.001387 0.731949,0 0.200725,-0.544447 0.200725,-1.923784 0,-1.372089 0.85815,-2.16525 0.04647,-2.185325 -5.666816,-0.15591 -9.001142,-0.0064 -9.001142,7.080637 0,6.433842 2.462163,7.628557 10.504891,7.628557 6.305958,0 8.528839,-0.206488 11.132605,-8.285483 0.515429,-1.594875 1.761416,-6.462067 2.515531,-14.634173 0.476868,-5.167089 -0.449348,-20.762652 -1.184081,-24.698856 z M 51.808571,54.444118 c -0.779054,-0.02721 -1.528393,0.02196 -2.227161,0.134245 0.196656,-1.588215 0.852193,-3.53704 3.174447,-3.455458 2.570672,0.08845 2.930886,2.518111 2.940029,4.163858 -1.08392,-0.483331 -2.425796,-0.791271 -3.887315,-0.842645 z"
     id="path236-7-1" /></g><g
   inkscape:groupmode="layer"
   id="layer1"
   inkscape:label="DO NOT EDIT - Cut Away Shape"
   style="display:none"
   sodipodi:insensitive="true" /><g
   inkscape:groupmode="layer"
   id="layer3"
   inkscape:label="DO NOT EDIT - Surround Gradient"
   style="display:none"
   sodipodi:insensitive="true"><g
     id="g4436"
     transform="matrix(0.97498781,0,0,0.97498781,1.0004876,8.8208648)"><path
       style="fill:url(#linearGradient4456);fill-opacity:0.25;display:inline"
       inkscape:connector-curvature="0"
       id="HIGHLIGHT_RIM"
       d="m 40,-8.021 c -29.635,0 -40,10.365 -40,40 0,29.633 10.365,40 40,40 29.637,0 40,-10.367 40,-40 0,-29.635 -10.363,-40 -40,-40 z m 0,79.023 C 10.841,71.002 1,61.154 1,31.978 1,2.803 10.841,-7.044 40,-7.044 c 29.158,0 39,9.847 39,39.022 0,29.176 -9.842,39.024 -39,39.024 z" /><path
       id="path4502"
       d="M 1.478,48.25 C 5.244,65.519 16.624,71.979 40,71.979 c 23.378,0 34.756,-6.46 38.522,-23.729 H 1.478 z"
       inkscape:connector-curvature="0"
       style="opacity:0.02000002;display:inline" /><path
       id="path4504"
       d="M 2.242,51.25 C 6.659,66.271 18.031,71.979 40,71.979 c 21.971,0 33.342,-5.708 37.758,-20.729 H 2.242 z"
       inkscape:connector-curvature="0"
       style="opacity:0.02000002;display:inline" /><path
       id="path4506"
       d="M 3.258,54.25 C 8.284,67.041 19.555,71.979 40,71.979 c 20.446,0 31.717,-4.938 36.742,-17.729 H 3.258 z"
       inkscape:connector-curvature="0"
       style="opacity:0.02000002;display:inline" /><path
       id="path4508"
       d="m 4.6355,57.25 c 5.575,10.565 16.605,14.729 35.364,14.729 18.76,0 29.79,-4.163 35.365,-14.729 H 4.6355 z"
       inkscape:connector-curvature="0"
       style="opacity:0.02000002;display:inline" /><path
       id="path4510"
       d="M 5.797,59.25 C 11.685,68.348 22.47,71.979 40,71.979 c 17.531,0 28.316,-3.631 34.203,-12.729 H 5.797 z"
       inkscape:connector-curvature="0"
       style="opacity:0.02000002;display:inline" /><path
       id="path4512"
       d="m 7.255,61.25 c 6.141,7.628 16.566,10.729 32.745,10.729 16.18,0 26.604,-3.101 32.745,-10.729 H 7.255 z"
       inkscape:connector-curvature="0"
       style="opacity:0.02000002;display:inline" /><path
       id="path4514"
       d="m 9.0585,63.25 c 6.305,6.177 16.254,8.729 30.941,8.729 14.688,0 24.638,-2.552 30.942,-8.729 H 9.0585 z"
       inkscape:connector-curvature="0"
       style="fill-opacity:0.02000002;display:inline" /><path
       id="path4517"
       d="m 39.9995,-7.021 c -29.635,0 -40,10.365 -40,40 0,2.888 0.102,5.588 0.307,8.119 l 0.219,0.02 h 78.958 l 0.21,-0.019 c 0.205,-2.531 0.307,-5.23 0.307,-8.12 -0.001,-29.635 -10.364,-40 -40.001,-40 z"
       inkscape:connector-curvature="0"
       style="opacity:0.01000001;fill:#ffffff;display:inline" /><path
       id="path4519"
       d="m 40,-8.021 c -29.635,0 -40,10.365 -40,40 0,1.051 0.017,2.073 0.043,3.077 l 0.701,0.062 H 79.26 l 0.697,-0.063 C 79.983,34.051 80,33.029 80,31.978 80,2.344 69.637,-8.021 40,-8.021 z"
       inkscape:connector-curvature="0"
       style="opacity:0.01000001;fill:#ffffff;display:inline" /><path
       id="path4521"
       d="m 0.965,30.116 h 78.072 l 0.941,-0.084 C 79.521,1.897 68.975,-8.021 40,-8.021 11.027,-8.021 0.479,1.898 0.022,30.033 l 0.943,0.083 z"
       inkscape:connector-curvature="0"
       style="opacity:0.01000001;fill:#ffffff;display:inline" /><path
       id="path4523"
       d="M 1.186,25.116 H 78.814 L 79.775,25.03 C 78.147,0.713 67.187,-8.021 40,-8.021 12.815,-8.021 1.853,0.714 0.225,25.032 l 0.961,0.084 z"
       inkscape:connector-curvature="0"
       style="opacity:0.01000001;fill:#ffffff;display:inline" /><path
       id="path4525"
       d="m 1.186,21.116 h 77.628 c 0.201,0 0.397,-0.036 0.594,-0.066 C 76.854,-0.247 65.648,-8.021 40,-8.021 c -25.646,0 -36.854,7.774 -39.408,29.072 0.197,0.029 0.392,0.065 0.594,0.065 z"
       inkscape:connector-curvature="0"
       style="opacity:0.01000001;fill:#ffffff;display:inline" /><path
       id="path4527"
       d="m 40,-8.021 c -24.004,0 -35.363,6.805 -38.814,25.138 H 78.814 C 75.363,-1.217 64.006,-8.021 40,-8.021 z"
       inkscape:connector-curvature="0"
       style="opacity:0.01000001;fill:#ffffff;display:inline" /><path
       id="path4529"
       d="m 76.074,13.67 1.6,-0.376 c 0.083,-0.02 0.158,-0.058 0.239,-0.084 C 73.605,-2.195 62.22,-8.021 40,-8.021 c -22.218,0 -33.604,5.827 -37.913,21.231 0.081,0.026 0.156,0.064 0.239,0.084 l 1.599,0.376 c 0.226,0.053 0.456,0.08 0.688,0.08 h 70.773 c 0.232,0 0.463,-0.027 0.688,-0.08 z"
       inkscape:connector-curvature="0"
       style="opacity:0.01000001;fill:#ffffff;display:inline" /><path
       id="path4531"
       d="m 4.613,10.75 h 70.773 l 1.6,-0.376 C 72.091,-2.907 60.794,-8.021 40,-8.021 19.208,-8.021 7.91,-2.906 3.014,10.374 l 1.599,0.376 z"
       inkscape:connector-curvature="0"
       style="opacity:0.01000001;fill:#ffffff;display:inline" /><path
       id="path4533"
       d="m 4.6135,8.75 h 70.773 c 0.305,0 0.595,-0.081 0.86,-0.208 -5.247,-11.921 -16.436,-16.563 -36.246,-16.563 -19.808,0 -30.998,4.643 -36.247,16.563 0.266,0.127 0.556,0.208 0.86,0.208 z"
       inkscape:connector-curvature="0"
       style="opacity:0.01000001;fill:#ffffff;display:inline" /><path
       id="path4535"
       d="M 75.387,6.75 C 69.82,-3.847 58.786,-8.021 40,-8.021 21.215,-8.021 10.181,-3.847 4.613,6.75 h 70.774 z"
       inkscape:connector-curvature="0"
       style="opacity:0.01000001;fill:#ffffff;display:inline" /></g></g></svg>